<?xml version="1.0" encoding="utf-8" standalone="no"?>
<!DOCTYPE svg PUBLIC "-//W3C//DTD SVG 1.1//EN"
  "http://www.w3.org/Graphics/SVG/1.1/DTD/svg11.dtd">
<svg xmlns:xlink="http://www.w3.org/1999/xlink" width="944.533333pt" height="381.2pt" viewBox="0 0 944.533333 381.2" xmlns="http://www.w3.org/2000/svg" version="1.1">
 <metadata>
  <rdf:RDF xmlns:dc="http://purl.org/dc/elements/1.1/" xmlns:cc="http://creativecommons.org/ns#" xmlns:rdf="http://www.w3.org/1999/02/22-rdf-syntax-ns#">
   <cc:Work>
    <dc:type rdf:resource="http://purl.org/dc/dcmitype/StillImage"/>
    <dc:date>2026-03-13T18:03:24.456308</dc:date>
    <dc:format>image/svg+xml</dc:format>
    <dc:creator>
     <cc:Agent>
      <dc:title>Matplotlib v3.10.8, https://matplotlib.org/</dc:title>
     </cc:Agent>
    </dc:creator>
   </cc:Work>
  </rdf:RDF>
 </metadata>
 <defs>
  <style type="text/css">*{stroke-linejoin: round; stroke-linecap: butt}</style>
 </defs>
 <g id="figure_1">
  <g id="patch_1">
   <path d="M 0 381.2 
L 944.533333 381.2 
L 944.533333 0 
L 0 0 
z
" style="fill: #fafbfc"/>
  </g>
  <g id="axes_1">
   <g id="patch_2">
    <path d="M 170.06639 190.6 
Q 190.59968 190.6 209.120509 190.6 
" style="fill: none; stroke: #555555; stroke-width: 1.8; stroke-linecap: round"/>
    <path d="M 204.720509 188.4 
L 209.120509 190.6 
L 204.720509 192.8 
" style="fill: none; stroke: #555555; stroke-width: 1.8; stroke-linecap: round"/>
   </g>
   <g id="patch_3">
    <path d="M 339.064327 190.6 
Q 365.232273 190.6 389.387758 190.6 
" style="fill: none; stroke: #555555; stroke-width: 1.8; stroke-linecap: round"/>
    <path d="M 384.987758 188.4 
L 389.387758 190.6 
L 384.987758 192.8 
" style="fill: none; stroke: #555555; stroke-width: 1.8; stroke-linecap: round"/>
   </g>
   <g id="patch_4">
    <path d="M 553.130994 190.6 
Q 579.29894 190.6 603.454425 190.6 
" style="fill: none; stroke: #555555; stroke-width: 1.8; stroke-linecap: round"/>
    <path d="M 599.054425 188.4 
L 603.454425 190.6 
L 599.054425 192.8 
" style="fill: none; stroke: #555555; stroke-width: 1.8; stroke-linecap: round"/>
   </g>
   <g id="patch_5">
    <path d="M 733.399723 190.6 
Q 753.933014 190.6 772.453843 190.6 
" style="fill: none; stroke: #555555; stroke-width: 1.8; stroke-linecap: round"/>
    <path d="M 768.053843 188.4 
L 772.453843 190.6 
L 768.053843 192.8 
" style="fill: none; stroke: #555555; stroke-width: 1.8; stroke-linecap: round"/>
   </g>
   <g id="patch_6">
    <path d="M 44.133333 236.793333 
L 168.066667 236.793333 
Q 174.826667 236.793333 174.826667 230.033333 
L 174.826667 151.166667 
Q 174.826667 144.406667 168.066667 144.406667 
L 44.133333 144.406667 
Q 37.373333 144.406667 37.373333 151.166667 
L 37.373333 230.033333 
Q 37.373333 236.793333 44.133333 236.793333 
z
" clip-path="url(#p3b3e088754)" style="fill: #4a90d9; opacity: 0.92; stroke: #333333; stroke-width: 1.5; stroke-linejoin: miter"/>
   </g>
   <g id="patch_7">
    <path d="M 213.133333 236.793333 
L 337.066667 236.793333 
Q 343.826667 236.793333 343.826667 230.033333 
L 343.826667 151.166667 
Q 343.826667 144.406667 337.066667 144.406667 
L 213.133333 144.406667 
Q 206.373333 144.406667 206.373333 151.166667 
L 206.373333 230.033333 
Q 206.373333 236.793333 213.133333 236.793333 
z
" clip-path="url(#p3b3e088754)" style="fill: #7b68ee; opacity: 0.92; stroke: #333333; stroke-width: 1.5; stroke-linejoin: miter"/>
   </g>
   <g id="patch_8">
    <path d="M 393.4 236.793333 
L 551.133333 236.793333 
Q 557.893333 236.793333 557.893333 230.033333 
L 557.893333 151.166667 
Q 557.893333 144.406667 551.133333 144.406667 
L 393.4 144.406667 
Q 386.64 144.406667 386.64 151.166667 
L 386.64 230.033333 
Q 386.64 236.793333 393.4 236.793333 
z
" clip-path="url(#p3b3e088754)" style="fill: #e74c3c; opacity: 0.92; stroke: #333333; stroke-width: 1.5; stroke-linejoin: miter"/>
   </g>
   <g id="patch_9">
    <path d="M 607.466667 236.793333 
L 731.4 236.793333 
Q 738.16 236.793333 738.16 230.033333 
L 738.16 151.166667 
Q 738.16 144.406667 731.4 144.406667 
L 607.466667 144.406667 
Q 600.706667 144.406667 600.706667 151.166667 
L 600.706667 230.033333 
Q 600.706667 236.793333 607.466667 236.793333 
z
" clip-path="url(#p3b3e088754)" style="fill: #f39c12; opacity: 0.92; stroke: #333333; stroke-width: 1.5; stroke-linejoin: miter"/>
   </g>
   <g id="patch_10">
    <path d="M 776.466667 236.793333 
L 900.4 236.793333 
Q 907.16 236.793333 907.16 230.033333 
L 907.16 151.166667 
Q 907.16 144.406667 900.4 144.406667 
L 776.466667 144.406667 
Q 769.706667 144.406667 769.706667 151.166667 
L 769.706667 230.033333 
Q 769.706667 236.793333 776.466667 236.793333 
z
" clip-path="url(#p3b3e088754)" style="fill: #27ae60; opacity: 0.92; stroke: #333333; stroke-width: 1.5; stroke-linejoin: miter"/>
   </g>
   <g id="text_1">
    <!-- Quantum Edge Detection (QED) Pipeline -->
    <g style="fill: #1a1a2e" transform="translate(290.935417 54.119167) scale(0.16 -0.16)">
     <defs>
      <path id="DejaVuSans-Bold-51" d="M 2847 -84 
L 2753 -84 
Q 1600 -84 959 553 
Q 319 1191 319 2328 
Q 319 3463 958 4106 
Q 1597 4750 2719 4750 
Q 3853 4750 4486 4112 
Q 5119 3475 5119 2328 
Q 5119 1541 4783 972 
Q 4447 403 3816 116 
L 4756 -934 
L 3609 -934 
L 2847 -84 
z
M 2719 3878 
Q 2169 3878 1866 3472 
Q 1563 3066 1563 2328 
Q 1563 1578 1859 1179 
Q 2156 781 2719 781 
Q 3272 781 3575 1187 
Q 3878 1594 3878 2328 
Q 3878 3066 3575 3472 
Q 3272 3878 2719 3878 
z
" transform="scale(0.015625)"/>
      <path id="DejaVuSans-Bold-75" d="M 500 1363 
L 500 3500 
L 1625 3500 
L 1625 3150 
Q 1625 2866 1622 2436 
Q 1619 2006 1619 1863 
Q 1619 1441 1641 1255 
Q 1663 1069 1716 984 
Q 1784 875 1895 815 
Q 2006 756 2150 756 
Q 2500 756 2700 1025 
Q 2900 1294 2900 1772 
L 2900 3500 
L 4019 3500 
L 4019 0 
L 2900 0 
L 2900 506 
Q 2647 200 2364 54 
Q 2081 -91 1741 -91 
Q 1134 -91 817 281 
Q 500 653 500 1363 
z
" transform="scale(0.015625)"/>
      <path id="DejaVuSans-Bold-61" d="M 2106 1575 
Q 1756 1575 1579 1456 
Q 1403 1338 1403 1106 
Q 1403 894 1545 773 
Q 1688 653 1941 653 
Q 2256 653 2472 879 
Q 2688 1106 2688 1447 
L 2688 1575 
L 2106 1575 
z
M 3816 1997 
L 3816 0 
L 2688 0 
L 2688 519 
Q 2463 200 2181 54 
Q 1900 -91 1497 -91 
Q 953 -91 614 226 
Q 275 544 275 1050 
Q 275 1666 698 1953 
Q 1122 2241 2028 2241 
L 2688 2241 
L 2688 2328 
Q 2688 2594 2478 2717 
Q 2269 2841 1825 2841 
Q 1466 2841 1156 2769 
Q 847 2697 581 2553 
L 581 3406 
Q 941 3494 1303 3539 
Q 1666 3584 2028 3584 
Q 2975 3584 3395 3211 
Q 3816 2838 3816 1997 
z
" transform="scale(0.015625)"/>
      <path id="DejaVuSans-Bold-6e" d="M 4056 2131 
L 4056 0 
L 2931 0 
L 2931 347 
L 2931 1631 
Q 2931 2084 2911 2256 
Q 2891 2428 2841 2509 
Q 2775 2619 2662 2680 
Q 2550 2741 2406 2741 
Q 2056 2741 1856 2470 
Q 1656 2200 1656 1722 
L 1656 0 
L 538 0 
L 538 3500 
L 1656 3500 
L 1656 2988 
Q 1909 3294 2193 3439 
Q 2478 3584 2822 3584 
Q 3428 3584 3742 3212 
Q 4056 2841 4056 2131 
z
" transform="scale(0.015625)"/>
      <path id="DejaVuSans-Bold-74" d="M 1759 4494 
L 1759 3500 
L 2913 3500 
L 2913 2700 
L 1759 2700 
L 1759 1216 
Q 1759 972 1856 886 
Q 1953 800 2241 800 
L 2816 800 
L 2816 0 
L 1856 0 
Q 1194 0 917 276 
Q 641 553 641 1216 
L 641 2700 
L 84 2700 
L 84 3500 
L 641 3500 
L 641 4494 
L 1759 4494 
z
" transform="scale(0.015625)"/>
      <path id="DejaVuSans-Bold-6d" d="M 3781 2919 
Q 3994 3244 4286 3414 
Q 4578 3584 4928 3584 
Q 5531 3584 5847 3212 
Q 6163 2841 6163 2131 
L 6163 0 
L 5038 0 
L 5038 1825 
Q 5041 1866 5042 1909 
Q 5044 1953 5044 2034 
Q 5044 2406 4934 2573 
Q 4825 2741 4581 2741 
Q 4263 2741 4089 2478 
Q 3916 2216 3909 1719 
L 3909 0 
L 2784 0 
L 2784 1825 
Q 2784 2406 2684 2573 
Q 2584 2741 2328 2741 
Q 2006 2741 1831 2477 
Q 1656 2213 1656 1722 
L 1656 0 
L 531 0 
L 531 3500 
L 1656 3500 
L 1656 2988 
Q 1863 3284 2130 3434 
Q 2397 3584 2719 3584 
Q 3081 3584 3359 3409 
Q 3638 3234 3781 2919 
z
" transform="scale(0.015625)"/>
      <path id="DejaVuSans-Bold-20" transform="scale(0.015625)"/>
      <path id="DejaVuSans-Bold-45" d="M 588 4666 
L 3834 4666 
L 3834 3756 
L 1791 3756 
L 1791 2888 
L 3713 2888 
L 3713 1978 
L 1791 1978 
L 1791 909 
L 3903 909 
L 3903 0 
L 588 0 
L 588 4666 
z
" transform="scale(0.015625)"/>
      <path id="DejaVuSans-Bold-64" d="M 2919 2988 
L 2919 4863 
L 4044 4863 
L 4044 0 
L 2919 0 
L 2919 506 
Q 2688 197 2409 53 
Q 2131 -91 1766 -91 
Q 1119 -91 703 423 
Q 288 938 288 1747 
Q 288 2556 703 3070 
Q 1119 3584 1766 3584 
Q 2128 3584 2408 3439 
Q 2688 3294 2919 2988 
z
M 2181 722 
Q 2541 722 2730 984 
Q 2919 1247 2919 1747 
Q 2919 2247 2730 2509 
Q 2541 2772 2181 2772 
Q 1825 2772 1636 2509 
Q 1447 2247 1447 1747 
Q 1447 1247 1636 984 
Q 1825 722 2181 722 
z
" transform="scale(0.015625)"/>
      <path id="DejaVuSans-Bold-67" d="M 2919 594 
Q 2688 288 2409 144 
Q 2131 0 1766 0 
Q 1125 0 706 504 
Q 288 1009 288 1791 
Q 288 2575 706 3076 
Q 1125 3578 1766 3578 
Q 2131 3578 2409 3434 
Q 2688 3291 2919 2981 
L 2919 3500 
L 4044 3500 
L 4044 353 
Q 4044 -491 3511 -936 
Q 2978 -1381 1966 -1381 
Q 1638 -1381 1331 -1331 
Q 1025 -1281 716 -1178 
L 716 -306 
Q 1009 -475 1290 -558 
Q 1572 -641 1856 -641 
Q 2406 -641 2662 -400 
Q 2919 -159 2919 353 
L 2919 594 
z
M 2181 2772 
Q 1834 2772 1640 2515 
Q 1447 2259 1447 1791 
Q 1447 1309 1634 1061 
Q 1822 813 2181 813 
Q 2531 813 2725 1069 
Q 2919 1325 2919 1791 
Q 2919 2259 2725 2515 
Q 2531 2772 2181 2772 
z
" transform="scale(0.015625)"/>
      <path id="DejaVuSans-Bold-65" d="M 4031 1759 
L 4031 1441 
L 1416 1441 
Q 1456 1047 1700 850 
Q 1944 653 2381 653 
Q 2734 653 3104 758 
Q 3475 863 3866 1075 
L 3866 213 
Q 3469 63 3072 -14 
Q 2675 -91 2278 -91 
Q 1328 -91 801 392 
Q 275 875 275 1747 
Q 275 2603 792 3093 
Q 1309 3584 2216 3584 
Q 3041 3584 3536 3087 
Q 4031 2591 4031 1759 
z
M 2881 2131 
Q 2881 2450 2695 2645 
Q 2509 2841 2209 2841 
Q 1884 2841 1681 2658 
Q 1478 2475 1428 2131 
L 2881 2131 
z
" transform="scale(0.015625)"/>
      <path id="DejaVuSans-Bold-44" d="M 1791 3756 
L 1791 909 
L 2222 909 
Q 2959 909 3348 1275 
Q 3738 1641 3738 2338 
Q 3738 3031 3350 3393 
Q 2963 3756 2222 3756 
L 1791 3756 
z
M 588 4666 
L 1856 4666 
Q 2919 4666 3439 4514 
Q 3959 4363 4331 4000 
Q 4659 3684 4818 3271 
Q 4978 2859 4978 2338 
Q 4978 1809 4818 1395 
Q 4659 981 4331 666 
Q 3956 303 3431 151 
Q 2906 0 1856 0 
L 588 0 
L 588 4666 
z
" transform="scale(0.015625)"/>
      <path id="DejaVuSans-Bold-63" d="M 3366 3391 
L 3366 2478 
Q 3138 2634 2908 2709 
Q 2678 2784 2431 2784 
Q 1963 2784 1702 2511 
Q 1441 2238 1441 1747 
Q 1441 1256 1702 982 
Q 1963 709 2431 709 
Q 2694 709 2930 787 
Q 3166 866 3366 1019 
L 3366 103 
Q 3103 6 2833 -42 
Q 2563 -91 2291 -91 
Q 1344 -91 809 395 
Q 275 881 275 1747 
Q 275 2613 809 3098 
Q 1344 3584 2291 3584 
Q 2566 3584 2833 3536 
Q 3100 3488 3366 3391 
z
" transform="scale(0.015625)"/>
      <path id="DejaVuSans-Bold-69" d="M 538 3500 
L 1656 3500 
L 1656 0 
L 538 0 
L 538 3500 
z
M 538 4863 
L 1656 4863 
L 1656 3950 
L 538 3950 
L 538 4863 
z
" transform="scale(0.015625)"/>
      <path id="DejaVuSans-Bold-6f" d="M 2203 2784 
Q 1831 2784 1636 2517 
Q 1441 2250 1441 1747 
Q 1441 1244 1636 976 
Q 1831 709 2203 709 
Q 2569 709 2762 976 
Q 2956 1244 2956 1747 
Q 2956 2250 2762 2517 
Q 2569 2784 2203 2784 
z
M 2203 3584 
Q 3106 3584 3614 3096 
Q 4122 2609 4122 1747 
Q 4122 884 3614 396 
Q 3106 -91 2203 -91 
Q 1297 -91 786 396 
Q 275 884 275 1747 
Q 275 2609 786 3096 
Q 1297 3584 2203 3584 
z
" transform="scale(0.015625)"/>
      <path id="DejaVuSans-Bold-28" d="M 2413 -844 
L 1484 -844 
Q 1006 -72 778 623 
Q 550 1319 550 2003 
Q 550 2688 779 3389 
Q 1009 4091 1484 4856 
L 2413 4856 
Q 2013 4116 1813 3408 
Q 1613 2700 1613 2009 
Q 1613 1319 1811 609 
Q 2009 -100 2413 -844 
z
" transform="scale(0.015625)"/>
      <path id="DejaVuSans-Bold-29" d="M 513 -844 
Q 913 -100 1113 609 
Q 1313 1319 1313 2009 
Q 1313 2700 1113 3408 
Q 913 4116 513 4856 
L 1441 4856 
Q 1916 4091 2145 3389 
Q 2375 2688 2375 2003 
Q 2375 1319 2147 623 
Q 1919 -72 1441 -844 
L 513 -844 
z
" transform="scale(0.015625)"/>
      <path id="DejaVuSans-Bold-50" d="M 588 4666 
L 2584 4666 
Q 3475 4666 3951 4270 
Q 4428 3875 4428 3144 
Q 4428 2409 3951 2014 
Q 3475 1619 2584 1619 
L 1791 1619 
L 1791 0 
L 588 0 
L 588 4666 
z
M 1791 3794 
L 1791 2491 
L 2456 2491 
Q 2806 2491 2997 2661 
Q 3188 2831 3188 3144 
Q 3188 3456 2997 3625 
Q 2806 3794 2456 3794 
L 1791 3794 
z
" transform="scale(0.015625)"/>
      <path id="DejaVuSans-Bold-70" d="M 1656 506 
L 1656 -1331 
L 538 -1331 
L 538 3500 
L 1656 3500 
L 1656 2988 
Q 1888 3294 2169 3439 
Q 2450 3584 2816 3584 
Q 3463 3584 3878 3070 
Q 4294 2556 4294 1747 
Q 4294 938 3878 423 
Q 3463 -91 2816 -91 
Q 2450 -91 2169 54 
Q 1888 200 1656 506 
z
M 2400 2772 
Q 2041 2772 1848 2508 
Q 1656 2244 1656 1747 
Q 1656 1250 1848 986 
Q 2041 722 2400 722 
Q 2759 722 2948 984 
Q 3138 1247 3138 1747 
Q 3138 2247 2948 2509 
Q 2759 2772 2400 2772 
z
" transform="scale(0.015625)"/>
      <path id="DejaVuSans-Bold-6c" d="M 538 4863 
L 1656 4863 
L 1656 0 
L 538 0 
L 538 4863 
z
" transform="scale(0.015625)"/>
     </defs>
     <use xlink:href="#DejaVuSans-Bold-51"/>
     <use xlink:href="#DejaVuSans-Bold-75" transform="translate(85.009766 0)"/>
     <use xlink:href="#DejaVuSans-Bold-61" transform="translate(156.201172 0)"/>
     <use xlink:href="#DejaVuSans-Bold-6e" transform="translate(223.681641 0)"/>
     <use xlink:href="#DejaVuSans-Bold-74" transform="translate(294.873047 0)"/>
     <use xlink:href="#DejaVuSans-Bold-75" transform="translate(342.675781 0)"/>
     <use xlink:href="#DejaVuSans-Bold-6d" transform="translate(413.867188 0)"/>
     <use xlink:href="#DejaVuSans-Bold-20" transform="translate(518.066406 0)"/>
     <use xlink:href="#DejaVuSans-Bold-45" transform="translate(552.880859 0)"/>
     <use xlink:href="#DejaVuSans-Bold-64" transform="translate(621.191406 0)"/>
     <use xlink:href="#DejaVuSans-Bold-67" transform="translate(692.773438 0)"/>
     <use xlink:href="#DejaVuSans-Bold-65" transform="translate(764.355469 0)"/>
     <use xlink:href="#DejaVuSans-Bold-20" transform="translate(832.177734 0)"/>
     <use xlink:href="#DejaVuSans-Bold-44" transform="translate(866.992188 0)"/>
     <use xlink:href="#DejaVuSans-Bold-65" transform="translate(950 0)"/>
     <use xlink:href="#DejaVuSans-Bold-74" transform="translate(1017.822266 0)"/>
     <use xlink:href="#DejaVuSans-Bold-65" transform="translate(1065.625 0)"/>
     <use xlink:href="#DejaVuSans-Bold-63" transform="translate(1133.447266 0)"/>
     <use xlink:href="#DejaVuSans-Bold-74" transform="translate(1192.724609 0)"/>
     <use xlink:href="#DejaVuSans-Bold-69" transform="translate(1240.527344 0)"/>
     <use xlink:href="#DejaVuSans-Bold-6f" transform="translate(1274.804688 0)"/>
     <use xlink:href="#DejaVuSans-Bold-6e" transform="translate(1343.505859 0)"/>
     <use xlink:href="#DejaVuSans-Bold-20" transform="translate(1414.697266 0)"/>
     <use xlink:href="#DejaVuSans-Bold-28" transform="translate(1449.511719 0)"/>
     <use xlink:href="#DejaVuSans-Bold-51" transform="translate(1495.214844 0)"/>
     <use xlink:href="#DejaVuSans-Bold-45" transform="translate(1580.224609 0)"/>
     <use xlink:href="#DejaVuSans-Bold-44" transform="translate(1648.535156 0)"/>
     <use xlink:href="#DejaVuSans-Bold-29" transform="translate(1731.542969 0)"/>
     <use xlink:href="#DejaVuSans-Bold-20" transform="translate(1777.246094 0)"/>
     <use xlink:href="#DejaVuSans-Bold-50" transform="translate(1812.060547 0)"/>
     <use xlink:href="#DejaVuSans-Bold-69" transform="translate(1885.351562 0)"/>
     <use xlink:href="#DejaVuSans-Bold-70" transform="translate(1919.628906 0)"/>
     <use xlink:href="#DejaVuSans-Bold-65" transform="translate(1991.210938 0)"/>
     <use xlink:href="#DejaVuSans-Bold-6c" transform="translate(2059.033203 0)"/>
     <use xlink:href="#DejaVuSans-Bold-69" transform="translate(2093.310547 0)"/>
     <use xlink:href="#DejaVuSans-Bold-6e" transform="translate(2127.587891 0)"/>
     <use xlink:href="#DejaVuSans-Bold-65" transform="translate(2198.779297 0)"/>
    </g>
   </g>
   <g id="text_2">
    <!-- Classical -->
    <g style="fill: #ffffff" transform="translate(84.071797 182.97025) scale(0.09 -0.09)">
     <defs>
      <path id="DejaVuSans-Bold-43" d="M 4288 256 
Q 3956 84 3597 -3 
Q 3238 -91 2847 -91 
Q 1681 -91 1000 561 
Q 319 1213 319 2328 
Q 319 3447 1000 4098 
Q 1681 4750 2847 4750 
Q 3238 4750 3597 4662 
Q 3956 4575 4288 4403 
L 4288 3438 
Q 3953 3666 3628 3772 
Q 3303 3878 2944 3878 
Q 2300 3878 1931 3465 
Q 1563 3053 1563 2328 
Q 1563 1606 1931 1193 
Q 2300 781 2944 781 
Q 3303 781 3628 887 
Q 3953 994 4288 1222 
L 4288 256 
z
" transform="scale(0.015625)"/>
      <path id="DejaVuSans-Bold-73" d="M 3272 3391 
L 3272 2541 
Q 2913 2691 2578 2766 
Q 2244 2841 1947 2841 
Q 1628 2841 1473 2761 
Q 1319 2681 1319 2516 
Q 1319 2381 1436 2309 
Q 1553 2238 1856 2203 
L 2053 2175 
Q 2913 2066 3209 1816 
Q 3506 1566 3506 1031 
Q 3506 472 3093 190 
Q 2681 -91 1863 -91 
Q 1516 -91 1145 -36 
Q 775 19 384 128 
L 384 978 
Q 719 816 1070 734 
Q 1422 653 1784 653 
Q 2113 653 2278 743 
Q 2444 834 2444 1013 
Q 2444 1163 2330 1236 
Q 2216 1309 1875 1350 
L 1678 1375 
Q 931 1469 631 1722 
Q 331 1975 331 2491 
Q 331 3047 712 3315 
Q 1094 3584 1881 3584 
Q 2191 3584 2531 3537 
Q 2872 3491 3272 3391 
z
" transform="scale(0.015625)"/>
     </defs>
     <use xlink:href="#DejaVuSans-Bold-43"/>
     <use xlink:href="#DejaVuSans-Bold-6c" transform="translate(73.388672 0)"/>
     <use xlink:href="#DejaVuSans-Bold-61" transform="translate(107.666016 0)"/>
     <use xlink:href="#DejaVuSans-Bold-73" transform="translate(175.146484 0)"/>
     <use xlink:href="#DejaVuSans-Bold-73" transform="translate(234.667969 0)"/>
     <use xlink:href="#DejaVuSans-Bold-69" transform="translate(294.189453 0)"/>
     <use xlink:href="#DejaVuSans-Bold-63" transform="translate(328.466797 0)"/>
     <use xlink:href="#DejaVuSans-Bold-61" transform="translate(387.744141 0)"/>
     <use xlink:href="#DejaVuSans-Bold-6c" transform="translate(455.224609 0)"/>
    </g>
    <!-- Image -->
    <g style="fill: #ffffff" transform="translate(90.426641 193.048281) scale(0.09 -0.09)">
     <defs>
      <path id="DejaVuSans-Bold-49" d="M 588 4666 
L 1791 4666 
L 1791 0 
L 588 0 
L 588 4666 
z
" transform="scale(0.015625)"/>
     </defs>
     <use xlink:href="#DejaVuSans-Bold-49"/>
     <use xlink:href="#DejaVuSans-Bold-6d" transform="translate(37.207031 0)"/>
     <use xlink:href="#DejaVuSans-Bold-61" transform="translate(141.40625 0)"/>
     <use xlink:href="#DejaVuSans-Bold-67" transform="translate(208.886719 0)"/>
     <use xlink:href="#DejaVuSans-Bold-65" transform="translate(280.46875 0)"/>
    </g>
    <!-- (Input) -->
    <g style="fill: #ffffff" transform="translate(88.533828 203.196625) scale(0.09 -0.09)">
     <use xlink:href="#DejaVuSans-Bold-28"/>
     <use xlink:href="#DejaVuSans-Bold-49" transform="translate(45.703125 0)"/>
     <use xlink:href="#DejaVuSans-Bold-6e" transform="translate(82.910156 0)"/>
     <use xlink:href="#DejaVuSans-Bold-70" transform="translate(154.101562 0)"/>
     <use xlink:href="#DejaVuSans-Bold-75" transform="translate(225.683594 0)"/>
     <use xlink:href="#DejaVuSans-Bold-74" transform="translate(296.875 0)"/>
     <use xlink:href="#DejaVuSans-Bold-29" transform="translate(344.677734 0)"/>
    </g>
   </g>
   <g id="text_3">
    <!-- Quantum State -->
    <g style="fill: #ffffff" transform="translate(236.589141 182.97025) scale(0.09 -0.09)">
     <defs>
      <path id="DejaVuSans-Bold-53" d="M 3834 4519 
L 3834 3531 
Q 3450 3703 3084 3790 
Q 2719 3878 2394 3878 
Q 1963 3878 1756 3759 
Q 1550 3641 1550 3391 
Q 1550 3203 1689 3098 
Q 1828 2994 2194 2919 
L 2706 2816 
Q 3484 2659 3812 2340 
Q 4141 2022 4141 1434 
Q 4141 663 3683 286 
Q 3225 -91 2284 -91 
Q 1841 -91 1394 -6 
Q 947 78 500 244 
L 500 1259 
Q 947 1022 1364 901 
Q 1781 781 2169 781 
Q 2563 781 2772 912 
Q 2981 1044 2981 1288 
Q 2981 1506 2839 1625 
Q 2697 1744 2272 1838 
L 1806 1941 
Q 1106 2091 782 2419 
Q 459 2747 459 3303 
Q 459 4000 909 4375 
Q 1359 4750 2203 4750 
Q 2588 4750 2994 4692 
Q 3400 4634 3834 4519 
z
" transform="scale(0.015625)"/>
     </defs>
     <use xlink:href="#DejaVuSans-Bold-51"/>
     <use xlink:href="#DejaVuSans-Bold-75" transform="translate(85.009766 0)"/>
     <use xlink:href="#DejaVuSans-Bold-61" transform="translate(156.201172 0)"/>
     <use xlink:href="#DejaVuSans-Bold-6e" transform="translate(223.681641 0)"/>
     <use xlink:href="#DejaVuSans-Bold-74" transform="translate(294.873047 0)"/>
     <use xlink:href="#DejaVuSans-Bold-75" transform="translate(342.675781 0)"/>
     <use xlink:href="#DejaVuSans-Bold-6d" transform="translate(413.867188 0)"/>
     <use xlink:href="#DejaVuSans-Bold-20" transform="translate(518.066406 0)"/>
     <use xlink:href="#DejaVuSans-Bold-53" transform="translate(552.880859 0)"/>
     <use xlink:href="#DejaVuSans-Bold-74" transform="translate(624.902344 0)"/>
     <use xlink:href="#DejaVuSans-Bold-61" transform="translate(672.705078 0)"/>
     <use xlink:href="#DejaVuSans-Bold-74" transform="translate(740.185547 0)"/>
     <use xlink:href="#DejaVuSans-Bold-65" transform="translate(787.988281 0)"/>
    </g>
    <!-- Encoding -->
    <g style="fill: #ffffff" transform="translate(251.875078 193.048281) scale(0.09 -0.09)">
     <use xlink:href="#DejaVuSans-Bold-45"/>
     <use xlink:href="#DejaVuSans-Bold-6e" transform="translate(68.310547 0)"/>
     <use xlink:href="#DejaVuSans-Bold-63" transform="translate(139.501953 0)"/>
     <use xlink:href="#DejaVuSans-Bold-6f" transform="translate(198.779297 0)"/>
     <use xlink:href="#DejaVuSans-Bold-64" transform="translate(267.480469 0)"/>
     <use xlink:href="#DejaVuSans-Bold-69" transform="translate(339.0625 0)"/>
     <use xlink:href="#DejaVuSans-Bold-6e" transform="translate(373.339844 0)"/>
     <use xlink:href="#DejaVuSans-Bold-67" transform="translate(444.53125 0)"/>
    </g>
    <!-- (Amplitude) -->
    <g style="fill: #ffffff" transform="translate(244.881094 203.196625) scale(0.09 -0.09)">
     <defs>
      <path id="DejaVuSans-Bold-41" d="M 3419 850 
L 1538 850 
L 1241 0 
L 31 0 
L 1759 4666 
L 3194 4666 
L 4922 0 
L 3713 0 
L 3419 850 
z
M 1838 1716 
L 3116 1716 
L 2478 3572 
L 1838 1716 
z
" transform="scale(0.015625)"/>
     </defs>
     <use xlink:href="#DejaVuSans-Bold-28"/>
     <use xlink:href="#DejaVuSans-Bold-41" transform="translate(45.703125 0)"/>
     <use xlink:href="#DejaVuSans-Bold-6d" transform="translate(123.095703 0)"/>
     <use xlink:href="#DejaVuSans-Bold-70" transform="translate(227.294922 0)"/>
     <use xlink:href="#DejaVuSans-Bold-6c" transform="translate(298.876953 0)"/>
     <use xlink:href="#DejaVuSans-Bold-69" transform="translate(333.154297 0)"/>
     <use xlink:href="#DejaVuSans-Bold-74" transform="translate(367.431641 0)"/>
     <use xlink:href="#DejaVuSans-Bold-75" transform="translate(415.234375 0)"/>
     <use xlink:href="#DejaVuSans-Bold-64" transform="translate(486.425781 0)"/>
     <use xlink:href="#DejaVuSans-Bold-65" transform="translate(558.007812 0)"/>
     <use xlink:href="#DejaVuSans-Bold-29" transform="translate(625.830078 0)"/>
    </g>
   </g>
   <g id="text_4">
    <!-- Quantum Operation -->
    <g style="fill: #ffffff" transform="translate(422.043854 188.009266) scale(0.09 -0.09)">
     <defs>
      <path id="DejaVuSans-Bold-4f" d="M 2719 3878 
Q 2169 3878 1866 3472 
Q 1563 3066 1563 2328 
Q 1563 1594 1866 1187 
Q 2169 781 2719 781 
Q 3272 781 3575 1187 
Q 3878 1594 3878 2328 
Q 3878 3066 3575 3472 
Q 3272 3878 2719 3878 
z
M 2719 4750 
Q 3844 4750 4481 4106 
Q 5119 3463 5119 2328 
Q 5119 1197 4481 553 
Q 3844 -91 2719 -91 
Q 1597 -91 958 553 
Q 319 1197 319 2328 
Q 319 3463 958 4106 
Q 1597 4750 2719 4750 
z
" transform="scale(0.015625)"/>
      <path id="DejaVuSans-Bold-72" d="M 3138 2547 
Q 2991 2616 2845 2648 
Q 2700 2681 2553 2681 
Q 2122 2681 1889 2404 
Q 1656 2128 1656 1613 
L 1656 0 
L 538 0 
L 538 3500 
L 1656 3500 
L 1656 2925 
Q 1872 3269 2151 3426 
Q 2431 3584 2822 3584 
Q 2878 3584 2943 3579 
Q 3009 3575 3134 3559 
L 3138 2547 
z
" transform="scale(0.015625)"/>
     </defs>
     <use xlink:href="#DejaVuSans-Bold-51"/>
     <use xlink:href="#DejaVuSans-Bold-75" transform="translate(85.009766 0)"/>
     <use xlink:href="#DejaVuSans-Bold-61" transform="translate(156.201172 0)"/>
     <use xlink:href="#DejaVuSans-Bold-6e" transform="translate(223.681641 0)"/>
     <use xlink:href="#DejaVuSans-Bold-74" transform="translate(294.873047 0)"/>
     <use xlink:href="#DejaVuSans-Bold-75" transform="translate(342.675781 0)"/>
     <use xlink:href="#DejaVuSans-Bold-6d" transform="translate(413.867188 0)"/>
     <use xlink:href="#DejaVuSans-Bold-20" transform="translate(518.066406 0)"/>
     <use xlink:href="#DejaVuSans-Bold-4f" transform="translate(552.880859 0)"/>
     <use xlink:href="#DejaVuSans-Bold-70" transform="translate(637.890625 0)"/>
     <use xlink:href="#DejaVuSans-Bold-65" transform="translate(709.472656 0)"/>
     <use xlink:href="#DejaVuSans-Bold-72" transform="translate(777.294922 0)"/>
     <use xlink:href="#DejaVuSans-Bold-61" transform="translate(826.611328 0)"/>
     <use xlink:href="#DejaVuSans-Bold-74" transform="translate(894.091797 0)"/>
     <use xlink:href="#DejaVuSans-Bold-69" transform="translate(941.894531 0)"/>
     <use xlink:href="#DejaVuSans-Bold-6f" transform="translate(976.171875 0)"/>
     <use xlink:href="#DejaVuSans-Bold-6e" transform="translate(1044.873047 0)"/>
    </g>
    <!-- (H gate + D₂ₙ₋₁) -->
    <g style="fill: #ffffff" transform="translate(432.353073 198.087297) scale(0.09 -0.09)">
     <defs>
      <path id="DejaVuSans-Bold-48" d="M 588 4666 
L 1791 4666 
L 1791 2888 
L 3566 2888 
L 3566 4666 
L 4769 4666 
L 4769 0 
L 3566 0 
L 3566 1978 
L 1791 1978 
L 1791 0 
L 588 0 
L 588 4666 
z
" transform="scale(0.015625)"/>
      <path id="DejaVuSans-Bold-2b" d="M 3053 4013 
L 3053 2375 
L 4684 2375 
L 4684 1638 
L 3053 1638 
L 3053 0 
L 2309 0 
L 2309 1638 
L 678 1638 
L 678 2375 
L 2309 2375 
L 2309 4013 
L 3053 4013 
z
" transform="scale(0.015625)"/>
      <path id="DejaVuSans-Bold-2082" d="M 1288 501 
L 2444 501 
L 2444 -24 
L 341 -24 
L 341 454 
L 1319 1285 
Q 1509 1451 1590 1576 
Q 1672 1701 1672 1826 
Q 1672 1982 1558 2079 
Q 1444 2176 1259 2176 
Q 1066 2176 844 2105 
Q 622 2035 359 1888 
L 359 2469 
Q 631 2554 886 2596 
Q 1141 2638 1375 2638 
Q 1869 2638 2150 2436 
Q 2431 2235 2431 1888 
Q 2431 1663 2320 1474 
Q 2209 1285 1894 1016 
L 1288 501 
z
" transform="scale(0.015625)"/>
      <path id="DejaVuSans-Bold-2099" d="M 2597 1169 
L 2597 -24 
L 1875 -24 
L 1875 169 
L 1875 888 
Q 1875 1144 1863 1238 
Q 1850 1335 1819 1382 
Q 1775 1441 1703 1475 
Q 1631 1510 1541 1510 
Q 1316 1510 1188 1360 
Q 1059 1207 1059 941 
L 1059 -24 
L 344 -24 
L 344 1935 
L 1059 1935 
L 1059 1647 
Q 1222 1819 1403 1901 
Q 1588 1982 1806 1982 
Q 2194 1982 2394 1776 
Q 2597 1566 2597 1169 
z
" transform="scale(0.015625)"/>
      <path id="DejaVuSans-Bold-208b" d="M 428 1307 
L 2950 1307 
L 2950 891 
L 428 891 
L 428 1307 
z
" transform="scale(0.015625)"/>
      <path id="DejaVuSans-Bold-2081" d="M 441 466 
L 1088 466 
L 1088 2094 
L 384 1932 
L 384 2432 
L 1100 2585 
L 1806 2585 
L 1806 466 
L 2444 466 
L 2444 -24 
L 441 -24 
L 441 466 
z
" transform="scale(0.015625)"/>
     </defs>
     <use xlink:href="#DejaVuSans-Bold-28"/>
     <use xlink:href="#DejaVuSans-Bold-48" transform="translate(45.703125 0)"/>
     <use xlink:href="#DejaVuSans-Bold-20" transform="translate(129.394531 0)"/>
     <use xlink:href="#DejaVuSans-Bold-67" transform="translate(164.208984 0)"/>
     <use xlink:href="#DejaVuSans-Bold-61" transform="translate(235.791016 0)"/>
     <use xlink:href="#DejaVuSans-Bold-74" transform="translate(303.271484 0)"/>
     <use xlink:href="#DejaVuSans-Bold-65" transform="translate(351.074219 0)"/>
     <use xlink:href="#DejaVuSans-Bold-20" transform="translate(418.896484 0)"/>
     <use xlink:href="#DejaVuSans-Bold-2b" transform="translate(453.710938 0)"/>
     <use xlink:href="#DejaVuSans-Bold-20" transform="translate(537.5 0)"/>
     <use xlink:href="#DejaVuSans-Bold-44" transform="translate(572.314453 0)"/>
     <use xlink:href="#DejaVuSans-Bold-2082" transform="translate(655.322266 0)"/>
     <use xlink:href="#DejaVuSans-Bold-2099" transform="translate(699.121094 0)"/>
     <use xlink:href="#DejaVuSans-Bold-208b" transform="translate(744.677734 0)"/>
     <use xlink:href="#DejaVuSans-Bold-2081" transform="translate(797.460938 0)"/>
     <use xlink:href="#DejaVuSans-Bold-29" transform="translate(841.259766 0)"/>
    </g>
   </g>
   <g id="text_5">
    <!-- Measurement -->
    <g style="fill: #ffffff" transform="translate(634.617396 183.005406) scale(0.09 -0.09)">
     <defs>
      <path id="DejaVuSans-Bold-4d" d="M 588 4666 
L 2119 4666 
L 3181 2169 
L 4250 4666 
L 5778 4666 
L 5778 0 
L 4641 0 
L 4641 3413 
L 3566 897 
L 2803 897 
L 1728 3413 
L 1728 0 
L 588 0 
L 588 4666 
z
" transform="scale(0.015625)"/>
     </defs>
     <use xlink:href="#DejaVuSans-Bold-4d"/>
     <use xlink:href="#DejaVuSans-Bold-65" transform="translate(99.511719 0)"/>
     <use xlink:href="#DejaVuSans-Bold-61" transform="translate(167.333984 0)"/>
     <use xlink:href="#DejaVuSans-Bold-73" transform="translate(234.814453 0)"/>
     <use xlink:href="#DejaVuSans-Bold-75" transform="translate(294.335938 0)"/>
     <use xlink:href="#DejaVuSans-Bold-72" transform="translate(365.527344 0)"/>
     <use xlink:href="#DejaVuSans-Bold-65" transform="translate(414.84375 0)"/>
     <use xlink:href="#DejaVuSans-Bold-6d" transform="translate(482.666016 0)"/>
     <use xlink:href="#DejaVuSans-Bold-65" transform="translate(586.865234 0)"/>
     <use xlink:href="#DejaVuSans-Bold-6e" transform="translate(654.6875 0)"/>
     <use xlink:href="#DejaVuSans-Bold-74" transform="translate(725.878906 0)"/>
    </g>
    <!-- &amp; Post- -->
    <g style="fill: #ffffff" transform="translate(650.856068 193.083438) scale(0.09 -0.09)">
     <defs>
      <path id="DejaVuSans-Bold-26" d="M 2497 3097 
L 3775 1691 
Q 3941 1909 4027 2181 
Q 4113 2453 4128 2797 
L 5100 2797 
Q 5053 2228 4879 1784 
Q 4706 1341 4397 1006 
L 5313 0 
L 3988 0 
L 3681 341 
Q 3353 122 2990 15 
Q 2628 -91 2222 -91 
Q 1400 -91 892 342 
Q 384 775 384 1459 
Q 384 1916 607 2267 
Q 831 2619 1338 2950 
Q 1206 3116 1143 3281 
Q 1081 3447 1081 3628 
Q 1081 4138 1478 4444 
Q 1875 4750 2534 4750 
Q 2819 4750 3126 4704 
Q 3434 4659 3769 4569 
L 3769 3700 
Q 3475 3850 3212 3922 
Q 2950 3994 2700 3994 
Q 2459 3994 2326 3901 
Q 2194 3809 2194 3641 
Q 2194 3534 2270 3398 
Q 2347 3263 2497 3097 
z
M 1875 2322 
Q 1672 2175 1569 1989 
Q 1466 1803 1466 1581 
Q 1466 1222 1731 969 
Q 1997 716 2369 716 
Q 2578 716 2759 780 
Q 2941 844 3097 972 
L 1875 2322 
z
" transform="scale(0.015625)"/>
      <path id="DejaVuSans-Bold-2d" d="M 347 2297 
L 2309 2297 
L 2309 1388 
L 347 1388 
L 347 2297 
z
" transform="scale(0.015625)"/>
     </defs>
     <use xlink:href="#DejaVuSans-Bold-26"/>
     <use xlink:href="#DejaVuSans-Bold-20" transform="translate(87.207031 0)"/>
     <use xlink:href="#DejaVuSans-Bold-50" transform="translate(122.021484 0)"/>
     <use xlink:href="#DejaVuSans-Bold-6f" transform="translate(195.3125 0)"/>
     <use xlink:href="#DejaVuSans-Bold-73" transform="translate(264.013672 0)"/>
     <use xlink:href="#DejaVuSans-Bold-74" transform="translate(323.535156 0)"/>
     <use xlink:href="#DejaVuSans-Bold-2d" transform="translate(371.337891 0)"/>
    </g>
    <!-- selection -->
    <g style="fill: #ffffff" transform="translate(646.451693 203.161469) scale(0.09 -0.09)">
     <use xlink:href="#DejaVuSans-Bold-73"/>
     <use xlink:href="#DejaVuSans-Bold-65" transform="translate(59.521484 0)"/>
     <use xlink:href="#DejaVuSans-Bold-6c" transform="translate(127.34375 0)"/>
     <use xlink:href="#DejaVuSans-Bold-65" transform="translate(161.621094 0)"/>
     <use xlink:href="#DejaVuSans-Bold-63" transform="translate(229.443359 0)"/>
     <use xlink:href="#DejaVuSans-Bold-74" transform="translate(288.720703 0)"/>
     <use xlink:href="#DejaVuSans-Bold-69" transform="translate(336.523438 0)"/>
     <use xlink:href="#DejaVuSans-Bold-6f" transform="translate(370.800781 0)"/>
     <use xlink:href="#DejaVuSans-Bold-6e" transform="translate(439.501953 0)"/>
    </g>
   </g>
   <g id="text_6">
    <!-- Edge Map -->
    <g style="fill: #ffffff" transform="translate(813.562396 188.009266) scale(0.09 -0.09)">
     <use xlink:href="#DejaVuSans-Bold-45"/>
     <use xlink:href="#DejaVuSans-Bold-64" transform="translate(68.310547 0)"/>
     <use xlink:href="#DejaVuSans-Bold-67" transform="translate(139.892578 0)"/>
     <use xlink:href="#DejaVuSans-Bold-65" transform="translate(211.474609 0)"/>
     <use xlink:href="#DejaVuSans-Bold-20" transform="translate(279.296875 0)"/>
     <use xlink:href="#DejaVuSans-Bold-4d" transform="translate(314.111328 0)"/>
     <use xlink:href="#DejaVuSans-Bold-61" transform="translate(413.623047 0)"/>
     <use xlink:href="#DejaVuSans-Bold-70" transform="translate(481.103516 0)"/>
    </g>
    <!-- (Output) -->
    <g style="fill: #ffffff" transform="translate(816.56474 198.157609) scale(0.09 -0.09)">
     <use xlink:href="#DejaVuSans-Bold-28"/>
     <use xlink:href="#DejaVuSans-Bold-4f" transform="translate(45.703125 0)"/>
     <use xlink:href="#DejaVuSans-Bold-75" transform="translate(130.712891 0)"/>
     <use xlink:href="#DejaVuSans-Bold-74" transform="translate(201.904297 0)"/>
     <use xlink:href="#DejaVuSans-Bold-70" transform="translate(249.707031 0)"/>
     <use xlink:href="#DejaVuSans-Bold-75" transform="translate(321.289062 0)"/>
     <use xlink:href="#DejaVuSans-Bold-74" transform="translate(392.480469 0)"/>
     <use xlink:href="#DejaVuSans-Bold-29" transform="translate(440.283203 0)"/>
    </g>
   </g>
   <g id="text_7">
    <g id="patch_11">
     <path d="M 78.76375 314.017042 
L 133.43625 314.017042 
Q 135.83625 314.017042 135.83625 311.617042 
L 135.83625 294.916292 
Q 135.83625 292.516292 133.43625 292.516292 
L 78.76375 292.516292 
Q 76.36375 292.516292 76.36375 294.916292 
L 76.36375 311.617042 
Q 76.36375 314.017042 78.76375 314.017042 
z
" style="fill: #f0f0f0; opacity: 0.8; stroke: #cccccc; stroke-linejoin: miter"/>
    </g>
    <!-- Grayscale -->
    <g style="fill: #555555" transform="translate(86.230625 300.995042) scale(0.08 -0.08)">
     <defs>
      <path id="DejaVuSans-Oblique-47" d="M 3494 697 
L 3738 1919 
L 2700 1919 
L 2797 2438 
L 4453 2438 
L 4050 384 
Q 3634 156 3143 32 
Q 2653 -91 2156 -91 
Q 1278 -91 783 396 
Q 288 884 288 1753 
Q 288 2475 589 3126 
Q 891 3778 1422 4213 
Q 1756 4484 2153 4617 
Q 2550 4750 3034 4750 
Q 3472 4750 3873 4639 
Q 4275 4528 4641 4306 
L 4513 3634 
Q 4231 3928 3853 4083 
Q 3475 4238 3047 4238 
Q 2550 4238 2172 4048 
Q 1794 3859 1497 3463 
Q 1244 3125 1098 2667 
Q 953 2209 953 1734 
Q 953 1081 1287 751 
Q 1622 422 2284 422 
Q 2616 422 2925 492 
Q 3234 563 3494 697 
z
" transform="scale(0.015625)"/>
      <path id="DejaVuSans-Oblique-72" d="M 2853 2969 
Q 2766 3016 2653 3041 
Q 2541 3066 2413 3066 
Q 1953 3066 1609 2717 
Q 1266 2369 1153 1784 
L 800 0 
L 225 0 
L 909 3500 
L 1484 3500 
L 1375 2956 
Q 1603 3259 1920 3421 
Q 2238 3584 2597 3584 
Q 2691 3584 2781 3573 
Q 2872 3563 2963 3538 
L 2853 2969 
z
" transform="scale(0.015625)"/>
      <path id="DejaVuSans-Oblique-61" d="M 3438 1997 
L 3047 0 
L 2472 0 
L 2578 531 
Q 2325 219 2001 64 
Q 1678 -91 1281 -91 
Q 834 -91 548 182 
Q 263 456 263 884 
Q 263 1497 752 1853 
Q 1241 2209 2100 2209 
L 2900 2209 
L 2931 2363 
Q 2938 2388 2941 2417 
Q 2944 2447 2944 2509 
Q 2944 2788 2717 2942 
Q 2491 3097 2081 3097 
Q 1800 3097 1504 3025 
Q 1209 2953 897 2809 
L 997 3341 
Q 1322 3463 1633 3523 
Q 1944 3584 2234 3584 
Q 2853 3584 3176 3315 
Q 3500 3047 3500 2534 
Q 3500 2431 3484 2292 
Q 3469 2153 3438 1997 
z
M 2816 1759 
L 2241 1759 
Q 1534 1759 1195 1570 
Q 856 1381 856 984 
Q 856 709 1029 553 
Q 1203 397 1509 397 
Q 1978 397 2328 733 
Q 2678 1069 2791 1631 
L 2816 1759 
z
" transform="scale(0.015625)"/>
      <path id="DejaVuSans-Oblique-79" d="M 1588 -325 
Q 1188 -997 936 -1164 
Q 684 -1331 294 -1331 
L -159 -1331 
L -63 -850 
L 269 -850 
Q 509 -850 678 -719 
Q 847 -588 1056 -206 
L 1234 128 
L 459 3500 
L 1069 3500 
L 1650 819 
L 3256 3500 
L 3859 3500 
L 1588 -325 
z
" transform="scale(0.015625)"/>
      <path id="DejaVuSans-Oblique-73" d="M 3200 3397 
L 3091 2853 
Q 2863 2978 2609 3040 
Q 2356 3103 2088 3103 
Q 1634 3103 1373 2948 
Q 1113 2794 1113 2528 
Q 1113 2219 1719 2053 
Q 1766 2041 1788 2034 
L 1972 1978 
Q 2547 1819 2739 1644 
Q 2931 1469 2931 1166 
Q 2931 609 2489 259 
Q 2047 -91 1331 -91 
Q 1053 -91 747 -37 
Q 441 16 72 128 
L 184 722 
Q 500 559 806 475 
Q 1113 391 1394 391 
Q 1816 391 2080 572 
Q 2344 753 2344 1031 
Q 2344 1331 1650 1516 
L 1591 1531 
L 1394 1581 
Q 956 1697 753 1886 
Q 550 2075 550 2369 
Q 550 2928 970 3256 
Q 1391 3584 2113 3584 
Q 2397 3584 2667 3537 
Q 2938 3491 3200 3397 
z
" transform="scale(0.015625)"/>
      <path id="DejaVuSans-Oblique-63" d="M 3431 3366 
L 3316 2797 
Q 3109 2947 2876 3022 
Q 2644 3097 2394 3097 
Q 2119 3097 1870 3000 
Q 1622 2903 1453 2725 
Q 1184 2453 1037 2087 
Q 891 1722 891 1331 
Q 891 859 1127 628 
Q 1363 397 1844 397 
Q 2081 397 2348 469 
Q 2616 541 2906 684 
L 2797 116 
Q 2547 13 2283 -39 
Q 2019 -91 1741 -91 
Q 1044 -91 669 257 
Q 294 606 294 1253 
Q 294 1797 489 2255 
Q 684 2713 1069 3078 
Q 1331 3328 1684 3456 
Q 2038 3584 2456 3584 
Q 2700 3584 2940 3529 
Q 3181 3475 3431 3366 
z
" transform="scale(0.015625)"/>
      <path id="DejaVuSans-Oblique-6c" d="M 1172 4863 
L 1747 4863 
L 800 0 
L 225 0 
L 1172 4863 
z
" transform="scale(0.015625)"/>
      <path id="DejaVuSans-Oblique-65" d="M 3078 2063 
Q 3088 2113 3092 2166 
Q 3097 2219 3097 2272 
Q 3097 2653 2873 2875 
Q 2650 3097 2266 3097 
Q 1838 3097 1509 2826 
Q 1181 2556 1013 2059 
L 3078 2063 
z
M 3578 1613 
L 903 1613 
Q 884 1494 878 1425 
Q 872 1356 872 1306 
Q 872 872 1139 634 
Q 1406 397 1894 397 
Q 2269 397 2603 481 
Q 2938 566 3225 728 
L 3116 159 
Q 2806 34 2476 -28 
Q 2147 -91 1806 -91 
Q 1078 -91 686 257 
Q 294 606 294 1247 
Q 294 1794 489 2264 
Q 684 2734 1063 3103 
Q 1306 3334 1642 3459 
Q 1978 3584 2356 3584 
Q 2950 3584 3301 3228 
Q 3653 2872 3653 2272 
Q 3653 2128 3634 1964 
Q 3616 1800 3578 1613 
z
" transform="scale(0.015625)"/>
     </defs>
     <use xlink:href="#DejaVuSans-Oblique-47"/>
     <use xlink:href="#DejaVuSans-Oblique-72" transform="translate(77.490234 0)"/>
     <use xlink:href="#DejaVuSans-Oblique-61" transform="translate(118.603516 0)"/>
     <use xlink:href="#DejaVuSans-Oblique-79" transform="translate(179.882812 0)"/>
     <use xlink:href="#DejaVuSans-Oblique-73" transform="translate(239.0625 0)"/>
     <use xlink:href="#DejaVuSans-Oblique-63" transform="translate(291.162109 0)"/>
     <use xlink:href="#DejaVuSans-Oblique-61" transform="translate(346.142578 0)"/>
     <use xlink:href="#DejaVuSans-Oblique-6c" transform="translate(407.421875 0)"/>
     <use xlink:href="#DejaVuSans-Oblique-65" transform="translate(435.205078 0)"/>
    </g>
    <!-- 2ᵏ × 2ᵏ pixels -->
    <g style="fill: #555555" transform="translate(78.76375 309.953292) scale(0.08 -0.08)">
     <defs>
      <path id="DejaVuSans-Oblique-32" d="M 2950 2253 
L 934 525 
L 3163 525 
L 3053 0 
L 25 0 
L 128 531 
L 2234 2338 
Q 2656 2703 2832 2979 
Q 3009 3256 3009 3547 
Q 3009 3850 2796 4040 
Q 2584 4231 2241 4231 
Q 1944 4231 1581 4125 
Q 1219 4019 806 3816 
L 922 4441 
Q 1309 4594 1662 4672 
Q 2016 4750 2316 4750 
Q 2928 4750 3301 4425 
Q 3675 4100 3675 3572 
Q 3675 3216 3497 2892 
Q 3319 2569 2950 2253 
z
" transform="scale(0.015625)"/>
      <path id="DejaVuSans-Oblique-1d4f" d="M 631 4809 
L 997 4809 
L 684 3203 
L 1928 4047 
L 2391 4047 
L 1041 3131 
L 2056 2088 
L 1584 2088 
L 653 3044 
L 466 2088 
L 100 2088 
L 631 4809 
z
" transform="scale(0.015625)"/>
      <path id="DejaVuSans-Oblique-20" transform="scale(0.015625)"/>
      <path id="DejaVuSans-Oblique-d7" d="M 4488 3438 
L 3059 2003 
L 4488 575 
L 4116 197 
L 2681 1631 
L 1247 197 
L 878 575 
L 2303 2003 
L 878 3438 
L 1247 3816 
L 2681 2381 
L 4116 3816 
L 4488 3438 
z
" transform="scale(0.015625)"/>
      <path id="DejaVuSans-Oblique-70" d="M 3175 2156 
Q 3175 2616 2975 2859 
Q 2775 3103 2400 3103 
Q 2144 3103 1911 2972 
Q 1678 2841 1497 2591 
Q 1319 2344 1212 1994 
Q 1106 1644 1106 1300 
Q 1106 863 1306 627 
Q 1506 391 1875 391 
Q 2147 391 2380 519 
Q 2613 647 2778 891 
Q 2956 1147 3065 1494 
Q 3175 1841 3175 2156 
z
M 1394 2969 
Q 1625 3272 1939 3428 
Q 2253 3584 2638 3584 
Q 3175 3584 3472 3232 
Q 3769 2881 3769 2247 
Q 3769 1728 3584 1258 
Q 3400 788 3053 416 
Q 2822 169 2531 39 
Q 2241 -91 1919 -91 
Q 1547 -91 1294 64 
Q 1041 219 916 525 
L 556 -1331 
L -19 -1331 
L 922 3500 
L 1497 3500 
L 1394 2969 
z
" transform="scale(0.015625)"/>
      <path id="DejaVuSans-Oblique-69" d="M 1172 4863 
L 1747 4863 
L 1606 4134 
L 1031 4134 
L 1172 4863 
z
M 909 3500 
L 1484 3500 
L 800 0 
L 225 0 
L 909 3500 
z
" transform="scale(0.015625)"/>
      <path id="DejaVuSans-Oblique-78" d="M 3841 3500 
L 2234 1784 
L 3219 0 
L 2559 0 
L 1819 1388 
L 531 0 
L -166 0 
L 1556 1844 
L 641 3500 
L 1300 3500 
L 1972 2234 
L 3144 3500 
L 3841 3500 
z
" transform="scale(0.015625)"/>
     </defs>
     <use xlink:href="#DejaVuSans-Oblique-32"/>
     <use xlink:href="#DejaVuSans-Oblique-1d4f" transform="translate(63.623047 0)"/>
     <use xlink:href="#DejaVuSans-Oblique-20" transform="translate(106.201172 0)"/>
     <use xlink:href="#DejaVuSans-Oblique-d7" transform="translate(137.988281 0)"/>
     <use xlink:href="#DejaVuSans-Oblique-20" transform="translate(221.777344 0)"/>
     <use xlink:href="#DejaVuSans-Oblique-32" transform="translate(253.564453 0)"/>
     <use xlink:href="#DejaVuSans-Oblique-1d4f" transform="translate(317.1875 0)"/>
     <use xlink:href="#DejaVuSans-Oblique-20" transform="translate(359.765625 0)"/>
     <use xlink:href="#DejaVuSans-Oblique-70" transform="translate(391.552734 0)"/>
     <use xlink:href="#DejaVuSans-Oblique-69" transform="translate(455.029297 0)"/>
     <use xlink:href="#DejaVuSans-Oblique-78" transform="translate(482.8125 0)"/>
     <use xlink:href="#DejaVuSans-Oblique-65" transform="translate(541.992188 0)"/>
     <use xlink:href="#DejaVuSans-Oblique-6c" transform="translate(603.515625 0)"/>
     <use xlink:href="#DejaVuSans-Oblique-73" transform="translate(631.298828 0)"/>
    </g>
   </g>
   <g id="patch_12">
    <path d="M 106.1 232.035292 
Q 106.1 253.974844 106.1 274.796363 
" style="fill: none; stroke-dasharray: 3.7,1.6; stroke-dashoffset: 0; stroke: #aaaaaa; stroke-linecap: round"/>
    <path d="M 108.3 270.396363 
L 106.1 274.796363 
L 103.9 270.396363 
" style="fill: none; stroke-dasharray: 3.7,1.6; stroke-dashoffset: 0; stroke: #aaaaaa; stroke-linecap: round"/>
   </g>
   <g id="text_8">
    <g id="patch_13">
     <path d="M 250.69375 314.017042 
L 299.50625 314.017042 
Q 301.90625 314.017042 301.90625 311.617042 
L 301.90625 294.916292 
Q 301.90625 292.516292 299.50625 292.516292 
L 250.69375 292.516292 
Q 248.29375 292.516292 248.29375 294.916292 
L 248.29375 311.617042 
Q 248.29375 314.017042 250.69375 314.017042 
z
" style="fill: #f0f0f0; opacity: 0.8; stroke: #cccccc; stroke-linejoin: miter"/>
    </g>
    <!-- O(n²) gates -->
    <g style="fill: #555555" transform="translate(252.31625 300.995042) scale(0.08 -0.08)">
     <defs>
      <path id="DejaVuSans-Oblique-4f" d="M 2919 4238 
Q 2400 4238 2003 3986 
Q 1606 3734 1313 3219 
Q 1125 2891 1026 2522 
Q 928 2153 928 1778 
Q 928 1128 1239 775 
Q 1550 422 2119 422 
Q 2631 422 3032 676 
Q 3434 931 3719 1434 
Q 3909 1772 4009 2142 
Q 4109 2513 4109 2881 
Q 4109 3528 3796 3883 
Q 3484 4238 2919 4238 
z
M 2100 -91 
Q 1241 -91 748 418 
Q 256 928 256 1813 
Q 256 2319 448 2847 
Q 641 3375 978 3788 
Q 1375 4272 1862 4511 
Q 2350 4750 2938 4750 
Q 3794 4750 4287 4245 
Q 4781 3741 4781 2869 
Q 4781 2331 4593 1812 
Q 4406 1294 4056 872 
Q 3656 384 3173 146 
Q 2691 -91 2100 -91 
z
" transform="scale(0.015625)"/>
      <path id="DejaVuSans-Oblique-28" d="M 2731 4856 
Q 1903 3822 1495 2892 
Q 1088 1963 1088 1100 
Q 1088 606 1206 120 
Q 1325 -366 1563 -844 
L 1063 -844 
Q 775 -306 634 201 
Q 494 709 494 1197 
Q 494 2125 923 3036 
Q 1353 3947 2222 4856 
L 2731 4856 
z
" transform="scale(0.015625)"/>
      <path id="DejaVuSans-Oblique-6e" d="M 3566 2113 
L 3156 0 
L 2578 0 
L 2988 2091 
Q 3016 2238 3031 2350 
Q 3047 2463 3047 2528 
Q 3047 2791 2881 2937 
Q 2716 3084 2419 3084 
Q 1956 3084 1622 2776 
Q 1288 2469 1184 1941 
L 800 0 
L 225 0 
L 903 3500 
L 1478 3500 
L 1363 2950 
Q 1603 3253 1940 3418 
Q 2278 3584 2650 3584 
Q 3113 3584 3367 3334 
Q 3622 3084 3622 2631 
Q 3622 2519 3608 2391 
Q 3594 2263 3566 2113 
z
" transform="scale(0.015625)"/>
      <path id="DejaVuSans-Oblique-b2" d="M 2059 3406 
L 856 2444 
L 2234 2444 
L 2163 2088 
L 231 2088 
L 300 2431 
L 1619 3494 
Q 1803 3638 1893 3772 
Q 1984 3906 1984 4031 
Q 1984 4200 1853 4304 
Q 1722 4409 1503 4409 
Q 1331 4409 1125 4356 
Q 919 4303 659 4191 
L 738 4575 
Q 975 4663 1187 4706 
Q 1400 4750 1600 4750 
Q 1984 4750 2223 4572 
Q 2463 4394 2463 4116 
Q 2463 3922 2363 3745 
Q 2263 3569 2059 3406 
z
" transform="scale(0.015625)"/>
      <path id="DejaVuSans-Oblique-29" d="M -397 -844 
Q 434 191 840 1120 
Q 1247 2050 1247 2913 
Q 1247 3406 1130 3892 
Q 1013 4378 775 4856 
L 1275 4856 
Q 1563 4316 1703 3812 
Q 1844 3309 1844 2822 
Q 1844 1891 1411 973 
Q 978 56 116 -844 
L -397 -844 
z
" transform="scale(0.015625)"/>
      <path id="DejaVuSans-Oblique-67" d="M 3816 3500 
L 3219 434 
Q 3047 -456 2561 -893 
Q 2075 -1331 1253 -1331 
Q 950 -1331 690 -1286 
Q 431 -1241 206 -1147 
L 313 -588 
Q 525 -725 762 -790 
Q 1000 -856 1269 -856 
Q 1816 -856 2167 -557 
Q 2519 -259 2631 300 
L 2681 563 
Q 2441 288 2122 144 
Q 1803 0 1434 0 
Q 903 0 598 351 
Q 294 703 294 1319 
Q 294 1803 478 2267 
Q 663 2731 997 3091 
Q 1219 3328 1514 3456 
Q 1809 3584 2131 3584 
Q 2484 3584 2746 3420 
Q 3009 3256 3138 2956 
L 3238 3500 
L 3816 3500 
z
M 2950 2216 
Q 2950 2641 2750 2872 
Q 2550 3103 2181 3103 
Q 1953 3103 1747 3012 
Q 1541 2922 1394 2759 
Q 1156 2491 1023 2127 
Q 891 1763 891 1375 
Q 891 944 1092 712 
Q 1294 481 1672 481 
Q 2219 481 2584 976 
Q 2950 1472 2950 2216 
z
" transform="scale(0.015625)"/>
      <path id="DejaVuSans-Oblique-74" d="M 2706 3500 
L 2619 3053 
L 1472 3053 
L 1100 1153 
Q 1081 1047 1072 975 
Q 1063 903 1063 863 
Q 1063 663 1183 572 
Q 1303 481 1569 481 
L 2150 481 
L 2053 0 
L 1503 0 
Q 991 0 739 200 
Q 488 400 488 806 
Q 488 878 497 964 
Q 506 1050 525 1153 
L 897 3053 
L 409 3053 
L 500 3500 
L 978 3500 
L 1172 4494 
L 1747 4494 
L 1556 3500 
L 2706 3500 
z
" transform="scale(0.015625)"/>
     </defs>
     <use xlink:href="#DejaVuSans-Oblique-4f"/>
     <use xlink:href="#DejaVuSans-Oblique-28" transform="translate(78.710938 0)"/>
     <use xlink:href="#DejaVuSans-Oblique-6e" transform="translate(117.724609 0)"/>
     <use xlink:href="#DejaVuSans-Oblique-b2" transform="translate(181.103516 0)"/>
     <use xlink:href="#DejaVuSans-Oblique-29" transform="translate(221.191406 0)"/>
     <use xlink:href="#DejaVuSans-Oblique-20" transform="translate(260.205078 0)"/>
     <use xlink:href="#DejaVuSans-Oblique-67" transform="translate(291.992188 0)"/>
     <use xlink:href="#DejaVuSans-Oblique-61" transform="translate(355.46875 0)"/>
     <use xlink:href="#DejaVuSans-Oblique-74" transform="translate(416.748047 0)"/>
     <use xlink:href="#DejaVuSans-Oblique-65" transform="translate(455.957031 0)"/>
     <use xlink:href="#DejaVuSans-Oblique-73" transform="translate(517.480469 0)"/>
    </g>
    <!-- 2k+1 qubits -->
    <g style="fill: #555555" transform="translate(250.69375 309.953292) scale(0.08 -0.08)">
     <defs>
      <path id="DejaVuSans-Oblique-6b" d="M 1172 4863 
L 1747 4863 
L 1197 2028 
L 3169 3500 
L 3916 3500 
L 1716 1825 
L 3322 0 
L 2625 0 
L 1131 1709 
L 800 0 
L 225 0 
L 1172 4863 
z
" transform="scale(0.015625)"/>
      <path id="DejaVuSans-Oblique-2b" d="M 2944 4013 
L 2944 2272 
L 4684 2272 
L 4684 1741 
L 2944 1741 
L 2944 0 
L 2419 0 
L 2419 1741 
L 678 1741 
L 678 2272 
L 2419 2272 
L 2419 4013 
L 2944 4013 
z
" transform="scale(0.015625)"/>
      <path id="DejaVuSans-Oblique-31" d="M 416 531 
L 1447 531 
L 2144 4122 
L 978 3897 
L 1088 4441 
L 2247 4666 
L 2881 4666 
L 2075 531 
L 3103 531 
L 3003 0 
L 313 0 
L 416 531 
z
" transform="scale(0.015625)"/>
      <path id="DejaVuSans-Oblique-71" d="M 2669 525 
Q 2438 222 2123 65 
Q 1809 -91 1428 -91 
Q 897 -91 595 267 
Q 294 625 294 1253 
Q 294 1759 480 2231 
Q 666 2703 1013 3078 
Q 1238 3322 1530 3453 
Q 1822 3584 2144 3584 
Q 2531 3584 2781 3431 
Q 3031 3278 3144 2969 
L 3244 3494 
L 3822 3494 
L 2888 -1319 
L 2309 -1319 
L 2669 525 
z
M 891 1338 
Q 891 875 1084 633 
Q 1278 391 1644 391 
Q 2188 391 2572 911 
Q 2956 1431 2956 2175 
Q 2956 2625 2757 2864 
Q 2559 3103 2188 3103 
Q 1916 3103 1684 2976 
Q 1453 2850 1281 2606 
Q 1100 2350 995 2006 
Q 891 1663 891 1338 
z
" transform="scale(0.015625)"/>
      <path id="DejaVuSans-Oblique-75" d="M 428 1388 
L 838 3500 
L 1416 3500 
L 1006 1409 
Q 975 1256 961 1147 
Q 947 1038 947 966 
Q 947 700 1109 554 
Q 1272 409 1569 409 
Q 2031 409 2368 721 
Q 2706 1034 2809 1563 
L 3194 3500 
L 3769 3500 
L 3091 0 
L 2516 0 
L 2631 550 
Q 2388 244 2052 76 
Q 1716 -91 1338 -91 
Q 878 -91 622 161 
Q 366 413 366 863 
Q 366 956 381 1097 
Q 397 1238 428 1388 
z
" transform="scale(0.015625)"/>
      <path id="DejaVuSans-Oblique-62" d="M 3169 2138 
Q 3169 2591 2961 2847 
Q 2753 3103 2388 3103 
Q 2122 3103 1889 2973 
Q 1656 2844 1484 2597 
Q 1303 2338 1198 1995 
Q 1094 1653 1094 1313 
Q 1094 881 1298 636 
Q 1503 391 1863 391 
Q 2134 391 2365 517 
Q 2597 644 2772 891 
Q 2950 1147 3059 1487 
Q 3169 1828 3169 2138 
z
M 1381 2969 
Q 1594 3256 1914 3420 
Q 2234 3584 2584 3584 
Q 3122 3584 3439 3221 
Q 3756 2859 3756 2241 
Q 3756 1734 3570 1259 
Q 3384 784 3041 416 
Q 2816 172 2522 40 
Q 2228 -91 1906 -91 
Q 1566 -91 1316 65 
Q 1066 222 909 531 
L 806 0 
L 231 0 
L 1178 4863 
L 1753 4863 
L 1381 2969 
z
" transform="scale(0.015625)"/>
     </defs>
     <use xlink:href="#DejaVuSans-Oblique-32"/>
     <use xlink:href="#DejaVuSans-Oblique-6b" transform="translate(63.623047 0)"/>
     <use xlink:href="#DejaVuSans-Oblique-2b" transform="translate(121.533203 0)"/>
     <use xlink:href="#DejaVuSans-Oblique-31" transform="translate(205.322266 0)"/>
     <use xlink:href="#DejaVuSans-Oblique-20" transform="translate(268.945312 0)"/>
     <use xlink:href="#DejaVuSans-Oblique-71" transform="translate(300.732422 0)"/>
     <use xlink:href="#DejaVuSans-Oblique-75" transform="translate(364.208984 0)"/>
     <use xlink:href="#DejaVuSans-Oblique-62" transform="translate(427.587891 0)"/>
     <use xlink:href="#DejaVuSans-Oblique-69" transform="translate(491.064453 0)"/>
     <use xlink:href="#DejaVuSans-Oblique-74" transform="translate(518.847656 0)"/>
     <use xlink:href="#DejaVuSans-Oblique-73" transform="translate(558.056641 0)"/>
    </g>
   </g>
   <g id="patch_14">
    <path d="M 275.1 232.035292 
Q 275.1 253.974844 275.1 274.796363 
" style="fill: none; stroke-dasharray: 3.7,1.6; stroke-dashoffset: 0; stroke: #aaaaaa; stroke-linecap: round"/>
    <path d="M 277.3 270.396363 
L 275.1 274.796363 
L 272.9 270.396363 
" style="fill: none; stroke-dasharray: 3.7,1.6; stroke-dashoffset: 0; stroke: #aaaaaa; stroke-linecap: round"/>
   </g>
   <g id="text_9">
    <g id="patch_15">
     <path d="M 440.521667 314.017042 
L 504.011667 314.017042 
Q 506.411667 314.017042 506.411667 311.617042 
L 506.411667 294.916292 
Q 506.411667 292.516292 504.011667 292.516292 
L 440.521667 292.516292 
Q 438.121667 292.516292 438.121667 294.916292 
L 438.121667 311.617042 
Q 438.121667 314.017042 440.521667 314.017042 
z
" style="fill: #f0f0f0; opacity: 0.8; stroke: #cccccc; stroke-linejoin: miter"/>
    </g>
    <!-- O(k) gates -->
    <g style="fill: #555555" transform="translate(451.305417 300.995042) scale(0.08 -0.08)">
     <use xlink:href="#DejaVuSans-Oblique-4f"/>
     <use xlink:href="#DejaVuSans-Oblique-28" transform="translate(78.710938 0)"/>
     <use xlink:href="#DejaVuSans-Oblique-6b" transform="translate(117.724609 0)"/>
     <use xlink:href="#DejaVuSans-Oblique-29" transform="translate(175.634766 0)"/>
     <use xlink:href="#DejaVuSans-Oblique-20" transform="translate(214.648438 0)"/>
     <use xlink:href="#DejaVuSans-Oblique-67" transform="translate(246.435547 0)"/>
     <use xlink:href="#DejaVuSans-Oblique-61" transform="translate(309.912109 0)"/>
     <use xlink:href="#DejaVuSans-Oblique-74" transform="translate(371.191406 0)"/>
     <use xlink:href="#DejaVuSans-Oblique-65" transform="translate(410.400391 0)"/>
     <use xlink:href="#DejaVuSans-Oblique-73" transform="translate(471.923828 0)"/>
    </g>
    <!-- (detection only) -->
    <g style="fill: #555555" transform="translate(440.521667 309.953292) scale(0.08 -0.08)">
     <defs>
      <path id="DejaVuSans-Oblique-64" d="M 2675 525 
Q 2444 222 2128 65 
Q 1813 -91 1428 -91 
Q 903 -91 598 267 
Q 294 625 294 1247 
Q 294 1766 478 2236 
Q 663 2706 1013 3078 
Q 1244 3325 1534 3454 
Q 1825 3584 2144 3584 
Q 2481 3584 2739 3421 
Q 2997 3259 3138 2956 
L 3513 4863 
L 4091 4863 
L 3144 0 
L 2566 0 
L 2675 525 
z
M 891 1350 
Q 891 897 1095 644 
Q 1300 391 1663 391 
Q 1931 391 2161 520 
Q 2391 650 2566 903 
Q 2750 1166 2856 1509 
Q 2963 1853 2963 2188 
Q 2963 2622 2758 2865 
Q 2553 3109 2194 3109 
Q 1922 3109 1687 2981 
Q 1453 2853 1288 2613 
Q 1106 2353 998 2009 
Q 891 1666 891 1350 
z
" transform="scale(0.015625)"/>
      <path id="DejaVuSans-Oblique-6f" d="M 1625 -91 
Q 1009 -91 651 289 
Q 294 669 294 1325 
Q 294 1706 417 2101 
Q 541 2497 738 2766 
Q 1047 3184 1428 3384 
Q 1809 3584 2291 3584 
Q 2888 3584 3255 3212 
Q 3622 2841 3622 2241 
Q 3622 1825 3500 1412 
Q 3378 1000 3181 728 
Q 2875 309 2494 109 
Q 2113 -91 1625 -91 
z
M 891 1344 
Q 891 869 1089 633 
Q 1288 397 1691 397 
Q 2269 397 2648 901 
Q 3028 1406 3028 2181 
Q 3028 2634 2825 2865 
Q 2622 3097 2228 3097 
Q 1903 3097 1650 2945 
Q 1397 2794 1197 2484 
Q 1050 2253 970 1956 
Q 891 1659 891 1344 
z
" transform="scale(0.015625)"/>
     </defs>
     <use xlink:href="#DejaVuSans-Oblique-28"/>
     <use xlink:href="#DejaVuSans-Oblique-64" transform="translate(39.013672 0)"/>
     <use xlink:href="#DejaVuSans-Oblique-65" transform="translate(102.490234 0)"/>
     <use xlink:href="#DejaVuSans-Oblique-74" transform="translate(164.013672 0)"/>
     <use xlink:href="#DejaVuSans-Oblique-65" transform="translate(203.222656 0)"/>
     <use xlink:href="#DejaVuSans-Oblique-63" transform="translate(264.746094 0)"/>
     <use xlink:href="#DejaVuSans-Oblique-74" transform="translate(319.726562 0)"/>
     <use xlink:href="#DejaVuSans-Oblique-69" transform="translate(358.935547 0)"/>
     <use xlink:href="#DejaVuSans-Oblique-6f" transform="translate(386.71875 0)"/>
     <use xlink:href="#DejaVuSans-Oblique-6e" transform="translate(447.900391 0)"/>
     <use xlink:href="#DejaVuSans-Oblique-20" transform="translate(511.279297 0)"/>
     <use xlink:href="#DejaVuSans-Oblique-6f" transform="translate(543.066406 0)"/>
     <use xlink:href="#DejaVuSans-Oblique-6e" transform="translate(604.248047 0)"/>
     <use xlink:href="#DejaVuSans-Oblique-6c" transform="translate(667.626953 0)"/>
     <use xlink:href="#DejaVuSans-Oblique-79" transform="translate(695.410156 0)"/>
     <use xlink:href="#DejaVuSans-Oblique-29" transform="translate(754.589844 0)"/>
    </g>
   </g>
   <g id="patch_16">
    <path d="M 472.266667 232.035292 
Q 472.266667 253.974844 472.266667 274.796363 
" style="fill: none; stroke-dasharray: 3.7,1.6; stroke-dashoffset: 0; stroke: #aaaaaa; stroke-linecap: round"/>
    <path d="M 474.466667 270.396363 
L 472.266667 274.796363 
L 470.066667 270.396363 
" style="fill: none; stroke-dasharray: 3.7,1.6; stroke-dashoffset: 0; stroke: #aaaaaa; stroke-linecap: round"/>
   </g>
   <g id="text_10">
    <g id="patch_17">
     <path d="M 647.468958 314.017042 
L 691.397708 314.017042 
Q 693.797708 314.017042 693.797708 311.617042 
L 693.797708 294.916292 
Q 693.797708 292.516292 691.397708 292.516292 
L 647.468958 292.516292 
Q 645.068958 292.516292 645.068958 294.916292 
L 645.068958 311.617042 
Q 645.068958 314.017042 647.468958 314.017042 
z
" style="fill: #f0f0f0; opacity: 0.8; stroke: #cccccc; stroke-linejoin: miter"/>
    </g>
    <!-- Probability -->
    <g style="fill: #555555" transform="translate(648.130208 300.995042) scale(0.08 -0.08)">
     <defs>
      <path id="DejaVuSans-Oblique-50" d="M 1081 4666 
L 2541 4666 
Q 3178 4666 3512 4369 
Q 3847 4072 3847 3500 
Q 3847 2731 3353 2303 
Q 2859 1875 1966 1875 
L 1172 1875 
L 806 0 
L 172 0 
L 1081 4666 
z
M 1613 4147 
L 1275 2394 
L 2069 2394 
Q 2606 2394 2893 2669 
Q 3181 2944 3181 3456 
Q 3181 3784 2986 3965 
Q 2791 4147 2438 4147 
L 1613 4147 
z
" transform="scale(0.015625)"/>
     </defs>
     <use xlink:href="#DejaVuSans-Oblique-50"/>
     <use xlink:href="#DejaVuSans-Oblique-72" transform="translate(60.302734 0)"/>
     <use xlink:href="#DejaVuSans-Oblique-6f" transform="translate(101.416016 0)"/>
     <use xlink:href="#DejaVuSans-Oblique-62" transform="translate(162.597656 0)"/>
     <use xlink:href="#DejaVuSans-Oblique-61" transform="translate(226.074219 0)"/>
     <use xlink:href="#DejaVuSans-Oblique-62" transform="translate(287.353516 0)"/>
     <use xlink:href="#DejaVuSans-Oblique-69" transform="translate(350.830078 0)"/>
     <use xlink:href="#DejaVuSans-Oblique-6c" transform="translate(378.613281 0)"/>
     <use xlink:href="#DejaVuSans-Oblique-69" transform="translate(406.396484 0)"/>
     <use xlink:href="#DejaVuSans-Oblique-74" transform="translate(434.179688 0)"/>
     <use xlink:href="#DejaVuSans-Oblique-79" transform="translate(473.388672 0)"/>
    </g>
    <!-- → intensity -->
    <g style="fill: #555555" transform="translate(647.468958 309.953292) scale(0.08 -0.08)">
     <defs>
      <path id="DejaVuSans-Oblique-2192" d="M 5050 2147 
L 5050 1866 
L 3822 638 
L 3447 1013 
L 4175 1741 
L 366 1741 
L 366 2272 
L 4175 2272 
L 3447 3000 
L 3822 3375 
L 5050 2147 
z
" transform="scale(0.015625)"/>
     </defs>
     <use xlink:href="#DejaVuSans-Oblique-2192"/>
     <use xlink:href="#DejaVuSans-Oblique-20" transform="translate(83.789062 0)"/>
     <use xlink:href="#DejaVuSans-Oblique-69" transform="translate(115.576172 0)"/>
     <use xlink:href="#DejaVuSans-Oblique-6e" transform="translate(143.359375 0)"/>
     <use xlink:href="#DejaVuSans-Oblique-74" transform="translate(206.738281 0)"/>
     <use xlink:href="#DejaVuSans-Oblique-65" transform="translate(245.947266 0)"/>
     <use xlink:href="#DejaVuSans-Oblique-6e" transform="translate(307.470703 0)"/>
     <use xlink:href="#DejaVuSans-Oblique-73" transform="translate(370.849609 0)"/>
     <use xlink:href="#DejaVuSans-Oblique-69" transform="translate(422.949219 0)"/>
     <use xlink:href="#DejaVuSans-Oblique-74" transform="translate(450.732422 0)"/>
     <use xlink:href="#DejaVuSans-Oblique-79" transform="translate(489.941406 0)"/>
    </g>
   </g>
   <g id="patch_18">
    <path d="M 669.433333 232.035292 
Q 669.433333 253.974844 669.433333 274.796363 
" style="fill: none; stroke-dasharray: 3.7,1.6; stroke-dashoffset: 0; stroke: #aaaaaa; stroke-linecap: round"/>
    <path d="M 671.633333 270.396363 
L 669.433333 274.796363 
L 667.233333 270.396363 
" style="fill: none; stroke-dasharray: 3.7,1.6; stroke-dashoffset: 0; stroke: #aaaaaa; stroke-linecap: round"/>
   </g>
   <g id="text_11">
    <g id="patch_19">
     <path d="M 814.545833 318.496167 
L 862.320833 318.496167 
Q 864.720833 318.496167 864.720833 316.096167 
L 864.720833 290.437167 
Q 864.720833 288.037167 862.320833 288.037167 
L 814.545833 288.037167 
Q 812.145833 288.037167 812.145833 290.437167 
L 812.145833 316.096167 
Q 812.145833 318.496167 814.545833 318.496167 
z
" style="fill: #f0f0f0; opacity: 0.8; stroke: #cccccc; stroke-linejoin: miter"/>
    </g>
    <!-- Threshold -->
    <g style="fill: #555555" transform="translate(818.632708 296.515917) scale(0.08 -0.08)">
     <defs>
      <path id="DejaVuSans-Oblique-54" d="M 378 4666 
L 4325 4666 
L 4225 4134 
L 2559 4134 
L 1759 0 
L 1125 0 
L 1925 4134 
L 275 4134 
L 378 4666 
z
" transform="scale(0.015625)"/>
      <path id="DejaVuSans-Oblique-68" d="M 3566 2113 
L 3156 0 
L 2578 0 
L 2988 2091 
Q 3016 2238 3031 2350 
Q 3047 2463 3047 2528 
Q 3047 2791 2881 2937 
Q 2716 3084 2419 3084 
Q 1956 3084 1617 2771 
Q 1278 2459 1178 1941 
L 800 0 
L 225 0 
L 1172 4863 
L 1747 4863 
L 1375 2950 
Q 1594 3244 1934 3414 
Q 2275 3584 2650 3584 
Q 3113 3584 3367 3334 
Q 3622 3084 3622 2631 
Q 3622 2519 3608 2391 
Q 3594 2263 3566 2113 
z
" transform="scale(0.015625)"/>
     </defs>
     <use xlink:href="#DejaVuSans-Oblique-54"/>
     <use xlink:href="#DejaVuSans-Oblique-68" transform="translate(61.083984 0)"/>
     <use xlink:href="#DejaVuSans-Oblique-72" transform="translate(124.462891 0)"/>
     <use xlink:href="#DejaVuSans-Oblique-65" transform="translate(165.576172 0)"/>
     <use xlink:href="#DejaVuSans-Oblique-73" transform="translate(227.099609 0)"/>
     <use xlink:href="#DejaVuSans-Oblique-68" transform="translate(279.199219 0)"/>
     <use xlink:href="#DejaVuSans-Oblique-6f" transform="translate(342.578125 0)"/>
     <use xlink:href="#DejaVuSans-Oblique-6c" transform="translate(403.759766 0)"/>
     <use xlink:href="#DejaVuSans-Oblique-64" transform="translate(431.542969 0)"/>
    </g>
    <!-- + Boundary -->
    <g style="fill: #555555" transform="translate(814.545833 305.474167) scale(0.08 -0.08)">
     <defs>
      <path id="DejaVuSans-Oblique-42" d="M 1081 4666 
L 2694 4666 
Q 3350 4666 3675 4422 
Q 4000 4178 4000 3688 
Q 4000 3238 3720 2911 
Q 3441 2584 2988 2516 
Q 3375 2428 3569 2181 
Q 3763 1934 3763 1522 
Q 3763 819 3242 409 
Q 2722 0 1819 0 
L 172 0 
L 1081 4666 
z
M 1234 2228 
L 903 519 
L 1919 519 
Q 2491 519 2800 781 
Q 3109 1044 3109 1522 
Q 3109 1891 2904 2059 
Q 2700 2228 2247 2228 
L 1234 2228 
z
M 1606 4147 
L 1331 2741 
L 2272 2741 
Q 2775 2741 3058 2959 
Q 3341 3178 3341 3566 
Q 3341 3869 3150 4008 
Q 2959 4147 2541 4147 
L 1606 4147 
z
" transform="scale(0.015625)"/>
     </defs>
     <use xlink:href="#DejaVuSans-Oblique-2b"/>
     <use xlink:href="#DejaVuSans-Oblique-20" transform="translate(83.789062 0)"/>
     <use xlink:href="#DejaVuSans-Oblique-42" transform="translate(115.576172 0)"/>
     <use xlink:href="#DejaVuSans-Oblique-6f" transform="translate(184.179688 0)"/>
     <use xlink:href="#DejaVuSans-Oblique-75" transform="translate(245.361328 0)"/>
     <use xlink:href="#DejaVuSans-Oblique-6e" transform="translate(308.740234 0)"/>
     <use xlink:href="#DejaVuSans-Oblique-64" transform="translate(372.119141 0)"/>
     <use xlink:href="#DejaVuSans-Oblique-61" transform="translate(435.595703 0)"/>
     <use xlink:href="#DejaVuSans-Oblique-72" transform="translate(496.875 0)"/>
     <use xlink:href="#DejaVuSans-Oblique-79" transform="translate(537.988281 0)"/>
    </g>
    <!-- Restoration -->
    <g style="fill: #555555" transform="translate(815.335833 314.432417) scale(0.08 -0.08)">
     <defs>
      <path id="DejaVuSans-Oblique-52" d="M 1613 4147 
L 1294 2491 
L 2106 2491 
Q 2584 2491 2879 2755 
Q 3175 3019 3175 3444 
Q 3175 3784 2976 3965 
Q 2778 4147 2406 4147 
L 1613 4147 
z
M 2772 2241 
Q 2972 2194 3105 2009 
Q 3238 1825 3413 1275 
L 3809 0 
L 3144 0 
L 2778 1197 
Q 2638 1659 2453 1815 
Q 2269 1972 1888 1972 
L 1191 1972 
L 806 0 
L 172 0 
L 1081 4666 
L 2503 4666 
Q 3150 4666 3495 4373 
Q 3841 4081 3841 3531 
Q 3841 3044 3547 2687 
Q 3253 2331 2772 2241 
z
" transform="scale(0.015625)"/>
     </defs>
     <use xlink:href="#DejaVuSans-Oblique-52"/>
     <use xlink:href="#DejaVuSans-Oblique-65" transform="translate(69.482422 0)"/>
     <use xlink:href="#DejaVuSans-Oblique-73" transform="translate(131.005859 0)"/>
     <use xlink:href="#DejaVuSans-Oblique-74" transform="translate(183.105469 0)"/>
     <use xlink:href="#DejaVuSans-Oblique-6f" transform="translate(222.314453 0)"/>
     <use xlink:href="#DejaVuSans-Oblique-72" transform="translate(283.496094 0)"/>
     <use xlink:href="#DejaVuSans-Oblique-61" transform="translate(324.609375 0)"/>
     <use xlink:href="#DejaVuSans-Oblique-74" transform="translate(385.888672 0)"/>
     <use xlink:href="#DejaVuSans-Oblique-69" transform="translate(425.097656 0)"/>
     <use xlink:href="#DejaVuSans-Oblique-6f" transform="translate(452.880859 0)"/>
     <use xlink:href="#DejaVuSans-Oblique-6e" transform="translate(514.0625 0)"/>
    </g>
   </g>
   <g id="patch_20">
    <path d="M 838.433333 232.035292 
Q 838.433333 253.974844 838.433333 274.796363 
" style="fill: none; stroke-dasharray: 3.7,1.6; stroke-dashoffset: 0; stroke: #aaaaaa; stroke-linecap: round"/>
    <path d="M 840.633333 270.396363 
L 838.433333 274.796363 
L 836.233333 270.396363 
" style="fill: none; stroke-dasharray: 3.7,1.6; stroke-dashoffset: 0; stroke: #aaaaaa; stroke-linecap: round"/>
   </g>
  </g>
 </g>
 <defs>
  <clipPath id="p3b3e088754">
   <rect x="21.6" y="21.6" width="901.333333" height="338"/>
  </clipPath>
 </defs>
</svg>
