<?xml version="1.0" encoding="utf-8" standalone="no"?>
<!DOCTYPE svg PUBLIC "-//W3C//DTD SVG 1.1//EN"
  "http://www.w3.org/Graphics/SVG/1.1/DTD/svg11.dtd">
<svg xmlns:xlink="http://www.w3.org/1999/xlink" width="792.977778pt" height="525.2pt" viewBox="0 0 792.977778 525.2" xmlns="http://www.w3.org/2000/svg" version="1.1">
 <metadata>
  <rdf:RDF xmlns:dc="http://purl.org/dc/elements/1.1/" xmlns:cc="http://creativecommons.org/ns#" xmlns:rdf="http://www.w3.org/1999/02/22-rdf-syntax-ns#">
   <cc:Work>
    <dc:type rdf:resource="http://purl.org/dc/dcmitype/StillImage"/>
    <dc:date>2026-03-13T16:02:26.666160</dc:date>
    <dc:format>image/svg+xml</dc:format>
    <dc:creator>
     <cc:Agent>
      <dc:title>Matplotlib v3.10.8, https://matplotlib.org/</dc:title>
     </cc:Agent>
    </dc:creator>
   </cc:Work>
  </rdf:RDF>
 </metadata>
 <defs>
  <style type="text/css">*{stroke-linejoin: round; stroke-linecap: butt}</style>
 </defs>
 <g id="figure_1">
  <g id="patch_1">
   <path d="M 0 525.2 
L 792.977778 525.2 
L 792.977778 0 
L 0 0 
z
" style="fill: #fafbfc"/>
  </g>
  <g id="axes_1">
   <g id="line2d_1">
    <path d="M 101.933333 128.711111 
L 717.822222 128.711111 
" clip-path="url(#p41a293d494)" style="fill: none; stroke: #333333; stroke-linecap: square"/>
   </g>
   <g id="line2d_2">
    <path d="M 101.933333 209.044444 
L 717.822222 209.044444 
" clip-path="url(#p41a293d494)" style="fill: none; stroke: #333333; stroke-linecap: square"/>
   </g>
   <g id="line2d_3">
    <path d="M 101.933333 289.377778 
L 717.822222 289.377778 
" clip-path="url(#p41a293d494)" style="fill: none; stroke: #333333; stroke-linecap: square"/>
   </g>
   <g id="line2d_4">
    <path d="M 101.933333 412.555556 
L 717.822222 412.555556 
" clip-path="url(#p41a293d494)" style="fill: none; stroke: #333333; stroke-linecap: square"/>
   </g>
   <g id="patch_2">
    <path d="M 144.777778 447.366667 
L 273.311111 447.366667 
Q 281.344444 447.366667 281.344444 439.333333 
L 281.344444 101.933333 
Q 281.344444 93.9 273.311111 93.9 
L 144.777778 93.9 
Q 136.744444 93.9 136.744444 101.933333 
L 136.744444 439.333333 
Q 136.744444 447.366667 144.777778 447.366667 
z
" clip-path="url(#p41a293d494)" style="fill: #7b68ee; opacity: 0.25; stroke: #333333; stroke-width: 1.5; stroke-linejoin: miter"/>
   </g>
   <g id="patch_3">
    <path d="M 553.800488 128.711111 
Q 573.222807 128.711111 590.632664 128.711111 
" style="fill: none; stroke: #555555; stroke-width: 1.8; stroke-linecap: round"/>
    <path d="M 586.232664 126.511111 
L 590.632664 128.711111 
L 586.232664 130.911111 
" style="fill: none; stroke: #555555; stroke-width: 1.8; stroke-linecap: round"/>
   </g>
   <g id="patch_4">
    <path d="M 653.555556 168.20294 
Q 653.555556 217.079225 653.555556 263.94305 
" style="fill: none; stroke: #555555; stroke-width: 1.8; stroke-linecap: round"/>
    <path d="M 655.755556 259.54305 
L 653.555556 263.94305 
L 651.355556 259.54305 
" style="fill: none; stroke: #555555; stroke-width: 1.8; stroke-linecap: round"/>
   </g>
   <g id="patch_5">
    <path d="M 316.155556 159.773333 
L 369.711111 159.773333 
Q 373.995556 159.773333 373.995556 155.488889 
L 373.995556 101.933333 
Q 373.995556 97.648889 369.711111 97.648889 
L 316.155556 97.648889 
Q 311.871111 97.648889 311.871111 101.933333 
L 311.871111 155.488889 
Q 311.871111 159.773333 316.155556 159.773333 
z
" clip-path="url(#p41a293d494)" style="fill: #e74c3c; opacity: 0.9; stroke: #333333; stroke-width: 1.5; stroke-linejoin: miter"/>
   </g>
   <g id="patch_6">
    <path d="M 316.155556 447.366667 
L 412.555556 447.366667 
Q 420.588889 447.366667 420.588889 439.333333 
L 420.588889 182.266667 
Q 420.588889 174.233333 412.555556 174.233333 
L 316.155556 174.233333 
Q 308.122222 174.233333 308.122222 182.266667 
L 308.122222 439.333333 
Q 308.122222 447.366667 316.155556 447.366667 
z
" clip-path="url(#p41a293d494)" style="fill: #e67e22; opacity: 0.85; stroke: #333333; stroke-width: 1.5; stroke-linejoin: miter"/>
   </g>
   <g id="patch_7">
    <path d="M 503.6 150.133333 
L 551.8 150.133333 
Q 554.477778 150.133333 554.477778 147.455556 
L 554.477778 109.966667 
Q 554.477778 107.288889 551.8 107.288889 
L 503.6 107.288889 
Q 500.922222 107.288889 500.922222 109.966667 
L 500.922222 147.455556 
Q 500.922222 150.133333 503.6 150.133333 
z
" clip-path="url(#p41a293d494)" style="fill: #f39c12; opacity: 0.9; stroke: #333333; stroke-width: 1.2; stroke-linejoin: miter"/>
   </g>
   <g id="patch_8">
    <path d="M 503.6 230.466667 
L 551.8 230.466667 
Q 554.477778 230.466667 554.477778 227.788889 
L 554.477778 190.3 
Q 554.477778 187.622222 551.8 187.622222 
L 503.6 187.622222 
Q 500.922222 187.622222 500.922222 190.3 
L 500.922222 227.788889 
Q 500.922222 230.466667 503.6 230.466667 
z
" clip-path="url(#p41a293d494)" style="fill: #f39c12; opacity: 0.9; stroke: #333333; stroke-width: 1.2; stroke-linejoin: miter"/>
   </g>
   <g id="patch_9">
    <path d="M 503.6 310.8 
L 551.8 310.8 
Q 554.477778 310.8 554.477778 308.122222 
L 554.477778 270.633333 
Q 554.477778 267.955556 551.8 267.955556 
L 503.6 267.955556 
Q 500.922222 267.955556 500.922222 270.633333 
L 500.922222 308.122222 
Q 500.922222 310.8 503.6 310.8 
z
" clip-path="url(#p41a293d494)" style="fill: #f39c12; opacity: 0.9; stroke: #333333; stroke-width: 1.2; stroke-linejoin: miter"/>
   </g>
   <g id="patch_10">
    <path d="M 503.6 433.977778 
L 551.8 433.977778 
Q 554.477778 433.977778 554.477778 431.3 
L 554.477778 393.811111 
Q 554.477778 391.133333 551.8 391.133333 
L 503.6 391.133333 
Q 500.922222 391.133333 500.922222 393.811111 
L 500.922222 431.3 
Q 500.922222 433.977778 503.6 433.977778 
z
" clip-path="url(#p41a293d494)" style="fill: #f39c12; opacity: 0.9; stroke: #333333; stroke-width: 1.2; stroke-linejoin: miter"/>
   </g>
   <g id="patch_11">
    <path d="M 594.644444 172.626667 
L 712.466667 172.626667 
Q 718.893333 172.626667 718.893333 166.2 
L 718.893333 91.222222 
Q 718.893333 84.795556 712.466667 84.795556 
L 594.644444 84.795556 
Q 588.217778 84.795556 588.217778 91.222222 
L 588.217778 166.2 
Q 588.217778 172.626667 594.644444 172.626667 
z
" clip-path="url(#p41a293d494)" style="fill: #27ae60; opacity: 0.9; stroke: #333333; stroke-width: 1.5; stroke-linejoin: miter"/>
   </g>
   <g id="patch_12">
    <path d="M 594.644444 349.36 
L 712.466667 349.36 
Q 718.893333 349.36 718.893333 342.933333 
L 718.893333 267.955556 
Q 718.893333 261.528889 712.466667 261.528889 
L 594.644444 261.528889 
Q 588.217778 261.528889 588.217778 267.955556 
L 588.217778 342.933333 
Q 588.217778 349.36 594.644444 349.36 
z
" clip-path="url(#p41a293d494)" style="fill: #2c3e50; opacity: 0.9; stroke: #333333; stroke-width: 1.5; stroke-linejoin: miter"/>
   </g>
   <g id="text_1">
    <!-- QHED Circuit Architecture (Abstracted) -->
    <g style="fill: #1a1a2e" transform="translate(230.929905 52.51684) scale(0.15 -0.15)">
     <defs>
      <path id="DejaVuSans-Bold-51" d="M 2847 -84 
L 2753 -84 
Q 1600 -84 959 553 
Q 319 1191 319 2328 
Q 319 3463 958 4106 
Q 1597 4750 2719 4750 
Q 3853 4750 4486 4112 
Q 5119 3475 5119 2328 
Q 5119 1541 4783 972 
Q 4447 403 3816 116 
L 4756 -934 
L 3609 -934 
L 2847 -84 
z
M 2719 3878 
Q 2169 3878 1866 3472 
Q 1563 3066 1563 2328 
Q 1563 1578 1859 1179 
Q 2156 781 2719 781 
Q 3272 781 3575 1187 
Q 3878 1594 3878 2328 
Q 3878 3066 3575 3472 
Q 3272 3878 2719 3878 
z
" transform="scale(0.015625)"/>
      <path id="DejaVuSans-Bold-48" d="M 588 4666 
L 1791 4666 
L 1791 2888 
L 3566 2888 
L 3566 4666 
L 4769 4666 
L 4769 0 
L 3566 0 
L 3566 1978 
L 1791 1978 
L 1791 0 
L 588 0 
L 588 4666 
z
" transform="scale(0.015625)"/>
      <path id="DejaVuSans-Bold-45" d="M 588 4666 
L 3834 4666 
L 3834 3756 
L 1791 3756 
L 1791 2888 
L 3713 2888 
L 3713 1978 
L 1791 1978 
L 1791 909 
L 3903 909 
L 3903 0 
L 588 0 
L 588 4666 
z
" transform="scale(0.015625)"/>
      <path id="DejaVuSans-Bold-44" d="M 1791 3756 
L 1791 909 
L 2222 909 
Q 2959 909 3348 1275 
Q 3738 1641 3738 2338 
Q 3738 3031 3350 3393 
Q 2963 3756 2222 3756 
L 1791 3756 
z
M 588 4666 
L 1856 4666 
Q 2919 4666 3439 4514 
Q 3959 4363 4331 4000 
Q 4659 3684 4818 3271 
Q 4978 2859 4978 2338 
Q 4978 1809 4818 1395 
Q 4659 981 4331 666 
Q 3956 303 3431 151 
Q 2906 0 1856 0 
L 588 0 
L 588 4666 
z
" transform="scale(0.015625)"/>
      <path id="DejaVuSans-Bold-20" transform="scale(0.015625)"/>
      <path id="DejaVuSans-Bold-43" d="M 4288 256 
Q 3956 84 3597 -3 
Q 3238 -91 2847 -91 
Q 1681 -91 1000 561 
Q 319 1213 319 2328 
Q 319 3447 1000 4098 
Q 1681 4750 2847 4750 
Q 3238 4750 3597 4662 
Q 3956 4575 4288 4403 
L 4288 3438 
Q 3953 3666 3628 3772 
Q 3303 3878 2944 3878 
Q 2300 3878 1931 3465 
Q 1563 3053 1563 2328 
Q 1563 1606 1931 1193 
Q 2300 781 2944 781 
Q 3303 781 3628 887 
Q 3953 994 4288 1222 
L 4288 256 
z
" transform="scale(0.015625)"/>
      <path id="DejaVuSans-Bold-69" d="M 538 3500 
L 1656 3500 
L 1656 0 
L 538 0 
L 538 3500 
z
M 538 4863 
L 1656 4863 
L 1656 3950 
L 538 3950 
L 538 4863 
z
" transform="scale(0.015625)"/>
      <path id="DejaVuSans-Bold-72" d="M 3138 2547 
Q 2991 2616 2845 2648 
Q 2700 2681 2553 2681 
Q 2122 2681 1889 2404 
Q 1656 2128 1656 1613 
L 1656 0 
L 538 0 
L 538 3500 
L 1656 3500 
L 1656 2925 
Q 1872 3269 2151 3426 
Q 2431 3584 2822 3584 
Q 2878 3584 2943 3579 
Q 3009 3575 3134 3559 
L 3138 2547 
z
" transform="scale(0.015625)"/>
      <path id="DejaVuSans-Bold-63" d="M 3366 3391 
L 3366 2478 
Q 3138 2634 2908 2709 
Q 2678 2784 2431 2784 
Q 1963 2784 1702 2511 
Q 1441 2238 1441 1747 
Q 1441 1256 1702 982 
Q 1963 709 2431 709 
Q 2694 709 2930 787 
Q 3166 866 3366 1019 
L 3366 103 
Q 3103 6 2833 -42 
Q 2563 -91 2291 -91 
Q 1344 -91 809 395 
Q 275 881 275 1747 
Q 275 2613 809 3098 
Q 1344 3584 2291 3584 
Q 2566 3584 2833 3536 
Q 3100 3488 3366 3391 
z
" transform="scale(0.015625)"/>
      <path id="DejaVuSans-Bold-75" d="M 500 1363 
L 500 3500 
L 1625 3500 
L 1625 3150 
Q 1625 2866 1622 2436 
Q 1619 2006 1619 1863 
Q 1619 1441 1641 1255 
Q 1663 1069 1716 984 
Q 1784 875 1895 815 
Q 2006 756 2150 756 
Q 2500 756 2700 1025 
Q 2900 1294 2900 1772 
L 2900 3500 
L 4019 3500 
L 4019 0 
L 2900 0 
L 2900 506 
Q 2647 200 2364 54 
Q 2081 -91 1741 -91 
Q 1134 -91 817 281 
Q 500 653 500 1363 
z
" transform="scale(0.015625)"/>
      <path id="DejaVuSans-Bold-74" d="M 1759 4494 
L 1759 3500 
L 2913 3500 
L 2913 2700 
L 1759 2700 
L 1759 1216 
Q 1759 972 1856 886 
Q 1953 800 2241 800 
L 2816 800 
L 2816 0 
L 1856 0 
Q 1194 0 917 276 
Q 641 553 641 1216 
L 641 2700 
L 84 2700 
L 84 3500 
L 641 3500 
L 641 4494 
L 1759 4494 
z
" transform="scale(0.015625)"/>
      <path id="DejaVuSans-Bold-41" d="M 3419 850 
L 1538 850 
L 1241 0 
L 31 0 
L 1759 4666 
L 3194 4666 
L 4922 0 
L 3713 0 
L 3419 850 
z
M 1838 1716 
L 3116 1716 
L 2478 3572 
L 1838 1716 
z
" transform="scale(0.015625)"/>
      <path id="DejaVuSans-Bold-68" d="M 4056 2131 
L 4056 0 
L 2931 0 
L 2931 347 
L 2931 1625 
Q 2931 2084 2911 2256 
Q 2891 2428 2841 2509 
Q 2775 2619 2662 2680 
Q 2550 2741 2406 2741 
Q 2056 2741 1856 2470 
Q 1656 2200 1656 1722 
L 1656 0 
L 538 0 
L 538 4863 
L 1656 4863 
L 1656 2988 
Q 1909 3294 2193 3439 
Q 2478 3584 2822 3584 
Q 3428 3584 3742 3212 
Q 4056 2841 4056 2131 
z
" transform="scale(0.015625)"/>
      <path id="DejaVuSans-Bold-65" d="M 4031 1759 
L 4031 1441 
L 1416 1441 
Q 1456 1047 1700 850 
Q 1944 653 2381 653 
Q 2734 653 3104 758 
Q 3475 863 3866 1075 
L 3866 213 
Q 3469 63 3072 -14 
Q 2675 -91 2278 -91 
Q 1328 -91 801 392 
Q 275 875 275 1747 
Q 275 2603 792 3093 
Q 1309 3584 2216 3584 
Q 3041 3584 3536 3087 
Q 4031 2591 4031 1759 
z
M 2881 2131 
Q 2881 2450 2695 2645 
Q 2509 2841 2209 2841 
Q 1884 2841 1681 2658 
Q 1478 2475 1428 2131 
L 2881 2131 
z
" transform="scale(0.015625)"/>
      <path id="DejaVuSans-Bold-28" d="M 2413 -844 
L 1484 -844 
Q 1006 -72 778 623 
Q 550 1319 550 2003 
Q 550 2688 779 3389 
Q 1009 4091 1484 4856 
L 2413 4856 
Q 2013 4116 1813 3408 
Q 1613 2700 1613 2009 
Q 1613 1319 1811 609 
Q 2009 -100 2413 -844 
z
" transform="scale(0.015625)"/>
      <path id="DejaVuSans-Bold-62" d="M 2400 722 
Q 2759 722 2948 984 
Q 3138 1247 3138 1747 
Q 3138 2247 2948 2509 
Q 2759 2772 2400 2772 
Q 2041 2772 1848 2508 
Q 1656 2244 1656 1747 
Q 1656 1250 1848 986 
Q 2041 722 2400 722 
z
M 1656 2988 
Q 1888 3294 2169 3439 
Q 2450 3584 2816 3584 
Q 3463 3584 3878 3070 
Q 4294 2556 4294 1747 
Q 4294 938 3878 423 
Q 3463 -91 2816 -91 
Q 2450 -91 2169 54 
Q 1888 200 1656 506 
L 1656 0 
L 538 0 
L 538 4863 
L 1656 4863 
L 1656 2988 
z
" transform="scale(0.015625)"/>
      <path id="DejaVuSans-Bold-73" d="M 3272 3391 
L 3272 2541 
Q 2913 2691 2578 2766 
Q 2244 2841 1947 2841 
Q 1628 2841 1473 2761 
Q 1319 2681 1319 2516 
Q 1319 2381 1436 2309 
Q 1553 2238 1856 2203 
L 2053 2175 
Q 2913 2066 3209 1816 
Q 3506 1566 3506 1031 
Q 3506 472 3093 190 
Q 2681 -91 1863 -91 
Q 1516 -91 1145 -36 
Q 775 19 384 128 
L 384 978 
Q 719 816 1070 734 
Q 1422 653 1784 653 
Q 2113 653 2278 743 
Q 2444 834 2444 1013 
Q 2444 1163 2330 1236 
Q 2216 1309 1875 1350 
L 1678 1375 
Q 931 1469 631 1722 
Q 331 1975 331 2491 
Q 331 3047 712 3315 
Q 1094 3584 1881 3584 
Q 2191 3584 2531 3537 
Q 2872 3491 3272 3391 
z
" transform="scale(0.015625)"/>
      <path id="DejaVuSans-Bold-61" d="M 2106 1575 
Q 1756 1575 1579 1456 
Q 1403 1338 1403 1106 
Q 1403 894 1545 773 
Q 1688 653 1941 653 
Q 2256 653 2472 879 
Q 2688 1106 2688 1447 
L 2688 1575 
L 2106 1575 
z
M 3816 1997 
L 3816 0 
L 2688 0 
L 2688 519 
Q 2463 200 2181 54 
Q 1900 -91 1497 -91 
Q 953 -91 614 226 
Q 275 544 275 1050 
Q 275 1666 698 1953 
Q 1122 2241 2028 2241 
L 2688 2241 
L 2688 2328 
Q 2688 2594 2478 2717 
Q 2269 2841 1825 2841 
Q 1466 2841 1156 2769 
Q 847 2697 581 2553 
L 581 3406 
Q 941 3494 1303 3539 
Q 1666 3584 2028 3584 
Q 2975 3584 3395 3211 
Q 3816 2838 3816 1997 
z
" transform="scale(0.015625)"/>
      <path id="DejaVuSans-Bold-64" d="M 2919 2988 
L 2919 4863 
L 4044 4863 
L 4044 0 
L 2919 0 
L 2919 506 
Q 2688 197 2409 53 
Q 2131 -91 1766 -91 
Q 1119 -91 703 423 
Q 288 938 288 1747 
Q 288 2556 703 3070 
Q 1119 3584 1766 3584 
Q 2128 3584 2408 3439 
Q 2688 3294 2919 2988 
z
M 2181 722 
Q 2541 722 2730 984 
Q 2919 1247 2919 1747 
Q 2919 2247 2730 2509 
Q 2541 2772 2181 2772 
Q 1825 2772 1636 2509 
Q 1447 2247 1447 1747 
Q 1447 1247 1636 984 
Q 1825 722 2181 722 
z
" transform="scale(0.015625)"/>
      <path id="DejaVuSans-Bold-29" d="M 513 -844 
Q 913 -100 1113 609 
Q 1313 1319 1313 2009 
Q 1313 2700 1113 3408 
Q 913 4116 513 4856 
L 1441 4856 
Q 1916 4091 2145 3389 
Q 2375 2688 2375 2003 
Q 2375 1319 2147 623 
Q 1919 -72 1441 -844 
L 513 -844 
z
" transform="scale(0.015625)"/>
     </defs>
     <use xlink:href="#DejaVuSans-Bold-51"/>
     <use xlink:href="#DejaVuSans-Bold-48" transform="translate(85.009766 0)"/>
     <use xlink:href="#DejaVuSans-Bold-45" transform="translate(168.701172 0)"/>
     <use xlink:href="#DejaVuSans-Bold-44" transform="translate(237.011719 0)"/>
     <use xlink:href="#DejaVuSans-Bold-20" transform="translate(320.019531 0)"/>
     <use xlink:href="#DejaVuSans-Bold-43" transform="translate(354.833984 0)"/>
     <use xlink:href="#DejaVuSans-Bold-69" transform="translate(428.222656 0)"/>
     <use xlink:href="#DejaVuSans-Bold-72" transform="translate(462.5 0)"/>
     <use xlink:href="#DejaVuSans-Bold-63" transform="translate(511.816406 0)"/>
     <use xlink:href="#DejaVuSans-Bold-75" transform="translate(571.09375 0)"/>
     <use xlink:href="#DejaVuSans-Bold-69" transform="translate(642.285156 0)"/>
     <use xlink:href="#DejaVuSans-Bold-74" transform="translate(676.5625 0)"/>
     <use xlink:href="#DejaVuSans-Bold-20" transform="translate(724.365234 0)"/>
     <use xlink:href="#DejaVuSans-Bold-41" transform="translate(759.179688 0)"/>
     <use xlink:href="#DejaVuSans-Bold-72" transform="translate(836.572266 0)"/>
     <use xlink:href="#DejaVuSans-Bold-63" transform="translate(885.888672 0)"/>
     <use xlink:href="#DejaVuSans-Bold-68" transform="translate(945.166016 0)"/>
     <use xlink:href="#DejaVuSans-Bold-69" transform="translate(1016.357422 0)"/>
     <use xlink:href="#DejaVuSans-Bold-74" transform="translate(1050.634766 0)"/>
     <use xlink:href="#DejaVuSans-Bold-65" transform="translate(1098.4375 0)"/>
     <use xlink:href="#DejaVuSans-Bold-63" transform="translate(1166.259766 0)"/>
     <use xlink:href="#DejaVuSans-Bold-74" transform="translate(1225.537109 0)"/>
     <use xlink:href="#DejaVuSans-Bold-75" transform="translate(1273.339844 0)"/>
     <use xlink:href="#DejaVuSans-Bold-72" transform="translate(1344.53125 0)"/>
     <use xlink:href="#DejaVuSans-Bold-65" transform="translate(1393.847656 0)"/>
     <use xlink:href="#DejaVuSans-Bold-20" transform="translate(1461.669922 0)"/>
     <use xlink:href="#DejaVuSans-Bold-28" transform="translate(1496.484375 0)"/>
     <use xlink:href="#DejaVuSans-Bold-41" transform="translate(1542.1875 0)"/>
     <use xlink:href="#DejaVuSans-Bold-62" transform="translate(1619.580078 0)"/>
     <use xlink:href="#DejaVuSans-Bold-73" transform="translate(1691.162109 0)"/>
     <use xlink:href="#DejaVuSans-Bold-74" transform="translate(1750.683594 0)"/>
     <use xlink:href="#DejaVuSans-Bold-72" transform="translate(1798.486328 0)"/>
     <use xlink:href="#DejaVuSans-Bold-61" transform="translate(1847.802734 0)"/>
     <use xlink:href="#DejaVuSans-Bold-63" transform="translate(1915.283203 0)"/>
     <use xlink:href="#DejaVuSans-Bold-74" transform="translate(1974.560547 0)"/>
     <use xlink:href="#DejaVuSans-Bold-65" transform="translate(2022.363281 0)"/>
     <use xlink:href="#DejaVuSans-Bold-64" transform="translate(2090.185547 0)"/>
     <use xlink:href="#DejaVuSans-Bold-29" transform="translate(2161.767578 0)"/>
    </g>
   </g>
   <g id="text_2">
    <!-- Ancilla  |0⟩ -->
    <g style="fill: #333333" transform="translate(31.259722 131.353299) scale(0.1 -0.1)">
     <defs>
      <path id="DejaVuSans-Bold-6e" d="M 4056 2131 
L 4056 0 
L 2931 0 
L 2931 347 
L 2931 1631 
Q 2931 2084 2911 2256 
Q 2891 2428 2841 2509 
Q 2775 2619 2662 2680 
Q 2550 2741 2406 2741 
Q 2056 2741 1856 2470 
Q 1656 2200 1656 1722 
L 1656 0 
L 538 0 
L 538 3500 
L 1656 3500 
L 1656 2988 
Q 1909 3294 2193 3439 
Q 2478 3584 2822 3584 
Q 3428 3584 3742 3212 
Q 4056 2841 4056 2131 
z
" transform="scale(0.015625)"/>
      <path id="DejaVuSans-Bold-6c" d="M 538 4863 
L 1656 4863 
L 1656 0 
L 538 0 
L 538 4863 
z
" transform="scale(0.015625)"/>
      <path id="DejaVuSans-Bold-7c" d="M 1522 4891 
L 1522 -1509 
L 813 -1509 
L 813 4891 
L 1522 4891 
z
" transform="scale(0.015625)"/>
      <path id="DejaVuSans-Bold-30" d="M 2944 2338 
Q 2944 3213 2780 3570 
Q 2616 3928 2228 3928 
Q 1841 3928 1675 3570 
Q 1509 3213 1509 2338 
Q 1509 1453 1675 1090 
Q 1841 728 2228 728 
Q 2613 728 2778 1090 
Q 2944 1453 2944 2338 
z
M 4147 2328 
Q 4147 1169 3647 539 
Q 3147 -91 2228 -91 
Q 1306 -91 806 539 
Q 306 1169 306 2328 
Q 306 3491 806 4120 
Q 1306 4750 2228 4750 
Q 3147 4750 3647 4120 
Q 4147 3491 4147 2328 
z
" transform="scale(0.015625)"/>
      <path id="DejaVuSans-Bold-27e9" d="M 2253 2006 
L 1363 -844 
L 513 -844 
L 1406 2006 
L 513 4856 
L 1363 4856 
L 2253 2006 
z
" transform="scale(0.015625)"/>
     </defs>
     <use xlink:href="#DejaVuSans-Bold-41"/>
     <use xlink:href="#DejaVuSans-Bold-6e" transform="translate(77.392578 0)"/>
     <use xlink:href="#DejaVuSans-Bold-63" transform="translate(148.583984 0)"/>
     <use xlink:href="#DejaVuSans-Bold-69" transform="translate(207.861328 0)"/>
     <use xlink:href="#DejaVuSans-Bold-6c" transform="translate(242.138672 0)"/>
     <use xlink:href="#DejaVuSans-Bold-6c" transform="translate(276.416016 0)"/>
     <use xlink:href="#DejaVuSans-Bold-61" transform="translate(310.693359 0)"/>
     <use xlink:href="#DejaVuSans-Bold-20" transform="translate(378.173828 0)"/>
     <use xlink:href="#DejaVuSans-Bold-20" transform="translate(412.988281 0)"/>
     <use xlink:href="#DejaVuSans-Bold-7c" transform="translate(447.802734 0)"/>
     <use xlink:href="#DejaVuSans-Bold-30" transform="translate(484.326172 0)"/>
     <use xlink:href="#DejaVuSans-Bold-27e9" transform="translate(553.90625 0)"/>
    </g>
   </g>
   <g id="text_3">
    <!-- Data q₁  |0⟩ -->
    <g style="fill: #333333" transform="translate(27.481597 211.686632) scale(0.1 -0.1)">
     <defs>
      <path id="DejaVuSans-Bold-71" d="M 2181 2772 
Q 1825 2772 1636 2509 
Q 1447 2247 1447 1747 
Q 1447 1247 1636 984 
Q 1825 722 2181 722 
Q 2541 722 2730 984 
Q 2919 1247 2919 1747 
Q 2919 2247 2730 2509 
Q 2541 2772 2181 2772 
z
M 2919 506 
Q 2688 197 2409 53 
Q 2131 -91 1766 -91 
Q 1119 -91 703 423 
Q 288 938 288 1747 
Q 288 2556 703 3067 
Q 1119 3578 1766 3578 
Q 2131 3578 2409 3434 
Q 2688 3291 2919 2981 
L 2919 3500 
L 4044 3500 
L 4044 -1331 
L 2919 -1331 
L 2919 506 
z
" transform="scale(0.015625)"/>
      <path id="DejaVuSans-Bold-2081" d="M 441 466 
L 1088 466 
L 1088 2094 
L 384 1932 
L 384 2432 
L 1100 2585 
L 1806 2585 
L 1806 466 
L 2444 466 
L 2444 -24 
L 441 -24 
L 441 466 
z
" transform="scale(0.015625)"/>
     </defs>
     <use xlink:href="#DejaVuSans-Bold-44"/>
     <use xlink:href="#DejaVuSans-Bold-61" transform="translate(83.007812 0)"/>
     <use xlink:href="#DejaVuSans-Bold-74" transform="translate(150.488281 0)"/>
     <use xlink:href="#DejaVuSans-Bold-61" transform="translate(198.291016 0)"/>
     <use xlink:href="#DejaVuSans-Bold-20" transform="translate(265.771484 0)"/>
     <use xlink:href="#DejaVuSans-Bold-71" transform="translate(300.585938 0)"/>
     <use xlink:href="#DejaVuSans-Bold-2081" transform="translate(372.167969 0)"/>
     <use xlink:href="#DejaVuSans-Bold-20" transform="translate(415.966797 0)"/>
     <use xlink:href="#DejaVuSans-Bold-20" transform="translate(450.78125 0)"/>
     <use xlink:href="#DejaVuSans-Bold-7c" transform="translate(485.595703 0)"/>
     <use xlink:href="#DejaVuSans-Bold-30" transform="translate(522.119141 0)"/>
     <use xlink:href="#DejaVuSans-Bold-27e9" transform="translate(591.699219 0)"/>
    </g>
   </g>
   <g id="text_4">
    <!-- Data q₂  |0⟩ -->
    <g style="fill: #333333" transform="translate(27.481597 292.019965) scale(0.1 -0.1)">
     <defs>
      <path id="DejaVuSans-Bold-2082" d="M 1288 501 
L 2444 501 
L 2444 -24 
L 341 -24 
L 341 454 
L 1319 1285 
Q 1509 1451 1590 1576 
Q 1672 1701 1672 1826 
Q 1672 1982 1558 2079 
Q 1444 2176 1259 2176 
Q 1066 2176 844 2105 
Q 622 2035 359 1888 
L 359 2469 
Q 631 2554 886 2596 
Q 1141 2638 1375 2638 
Q 1869 2638 2150 2436 
Q 2431 2235 2431 1888 
Q 2431 1663 2320 1474 
Q 2209 1285 1894 1016 
L 1288 501 
z
" transform="scale(0.015625)"/>
     </defs>
     <use xlink:href="#DejaVuSans-Bold-44"/>
     <use xlink:href="#DejaVuSans-Bold-61" transform="translate(83.007812 0)"/>
     <use xlink:href="#DejaVuSans-Bold-74" transform="translate(150.488281 0)"/>
     <use xlink:href="#DejaVuSans-Bold-61" transform="translate(198.291016 0)"/>
     <use xlink:href="#DejaVuSans-Bold-20" transform="translate(265.771484 0)"/>
     <use xlink:href="#DejaVuSans-Bold-71" transform="translate(300.585938 0)"/>
     <use xlink:href="#DejaVuSans-Bold-2082" transform="translate(372.167969 0)"/>
     <use xlink:href="#DejaVuSans-Bold-20" transform="translate(415.966797 0)"/>
     <use xlink:href="#DejaVuSans-Bold-20" transform="translate(450.78125 0)"/>
     <use xlink:href="#DejaVuSans-Bold-7c" transform="translate(485.595703 0)"/>
     <use xlink:href="#DejaVuSans-Bold-30" transform="translate(522.119141 0)"/>
     <use xlink:href="#DejaVuSans-Bold-27e9" transform="translate(591.699219 0)"/>
    </g>
   </g>
   <g id="text_5">
    <!--   ...   -->
    <g style="fill: #888888" transform="translate(78.986441 356.679757) scale(0.11 -0.11)">
     <defs>
      <path id="DejaVuSans-20" transform="scale(0.015625)"/>
      <path id="DejaVuSans-2e" d="M 684 794 
L 1344 794 
L 1344 0 
L 684 0 
L 684 794 
z
" transform="scale(0.015625)"/>
     </defs>
     <use xlink:href="#DejaVuSans-20"/>
     <use xlink:href="#DejaVuSans-20" transform="translate(31.787109 0)"/>
     <use xlink:href="#DejaVuSans-2e" transform="translate(63.574219 0)"/>
     <use xlink:href="#DejaVuSans-2e" transform="translate(95.361328 0)"/>
     <use xlink:href="#DejaVuSans-2e" transform="translate(127.148438 0)"/>
     <use xlink:href="#DejaVuSans-20" transform="translate(158.935547 0)"/>
     <use xlink:href="#DejaVuSans-20" transform="translate(190.722656 0)"/>
    </g>
   </g>
   <g id="text_6">
    <!-- Data q₂ₖ |0⟩ -->
    <g style="fill: #333333" transform="translate(26.08941 415.197743) scale(0.1 -0.1)">
     <defs>
      <path id="DejaVuSans-Bold-2096" d="M 341 2697 
L 1047 2697 
L 1047 1216 
L 1856 1935 
L 2675 1935 
L 1600 1035 
L 2759 -24 
L 1906 -24 
L 1047 794 
L 1047 -24 
L 341 -24 
L 341 2697 
z
" transform="scale(0.015625)"/>
     </defs>
     <use xlink:href="#DejaVuSans-Bold-44"/>
     <use xlink:href="#DejaVuSans-Bold-61" transform="translate(83.007812 0)"/>
     <use xlink:href="#DejaVuSans-Bold-74" transform="translate(150.488281 0)"/>
     <use xlink:href="#DejaVuSans-Bold-61" transform="translate(198.291016 0)"/>
     <use xlink:href="#DejaVuSans-Bold-20" transform="translate(265.771484 0)"/>
     <use xlink:href="#DejaVuSans-Bold-71" transform="translate(300.585938 0)"/>
     <use xlink:href="#DejaVuSans-Bold-2082" transform="translate(372.167969 0)"/>
     <use xlink:href="#DejaVuSans-Bold-2096" transform="translate(415.966797 0)"/>
     <use xlink:href="#DejaVuSans-Bold-20" transform="translate(464.697266 0)"/>
     <use xlink:href="#DejaVuSans-Bold-7c" transform="translate(499.511719 0)"/>
     <use xlink:href="#DejaVuSans-Bold-30" transform="translate(536.035156 0)"/>
     <use xlink:href="#DejaVuSans-Bold-27e9" transform="translate(605.615234 0)"/>
    </g>
   </g>
   <g id="text_7">
    <!-- Amplitude -->
    <g style="fill: #7b68ee" transform="translate(177.137569 82.700214) scale(0.11 -0.11)">
     <defs>
      <path id="DejaVuSans-Bold-6d" d="M 3781 2919 
Q 3994 3244 4286 3414 
Q 4578 3584 4928 3584 
Q 5531 3584 5847 3212 
Q 6163 2841 6163 2131 
L 6163 0 
L 5038 0 
L 5038 1825 
Q 5041 1866 5042 1909 
Q 5044 1953 5044 2034 
Q 5044 2406 4934 2573 
Q 4825 2741 4581 2741 
Q 4263 2741 4089 2478 
Q 3916 2216 3909 1719 
L 3909 0 
L 2784 0 
L 2784 1825 
Q 2784 2406 2684 2573 
Q 2584 2741 2328 2741 
Q 2006 2741 1831 2477 
Q 1656 2213 1656 1722 
L 1656 0 
L 531 0 
L 531 3500 
L 1656 3500 
L 1656 2988 
Q 1863 3284 2130 3434 
Q 2397 3584 2719 3584 
Q 3081 3584 3359 3409 
Q 3638 3234 3781 2919 
z
" transform="scale(0.015625)"/>
      <path id="DejaVuSans-Bold-70" d="M 1656 506 
L 1656 -1331 
L 538 -1331 
L 538 3500 
L 1656 3500 
L 1656 2988 
Q 1888 3294 2169 3439 
Q 2450 3584 2816 3584 
Q 3463 3584 3878 3070 
Q 4294 2556 4294 1747 
Q 4294 938 3878 423 
Q 3463 -91 2816 -91 
Q 2450 -91 2169 54 
Q 1888 200 1656 506 
z
M 2400 2772 
Q 2041 2772 1848 2508 
Q 1656 2244 1656 1747 
Q 1656 1250 1848 986 
Q 2041 722 2400 722 
Q 2759 722 2948 984 
Q 3138 1247 3138 1747 
Q 3138 2247 2948 2509 
Q 2759 2772 2400 2772 
z
" transform="scale(0.015625)"/>
     </defs>
     <use xlink:href="#DejaVuSans-Bold-41"/>
     <use xlink:href="#DejaVuSans-Bold-6d" transform="translate(77.392578 0)"/>
     <use xlink:href="#DejaVuSans-Bold-70" transform="translate(181.591797 0)"/>
     <use xlink:href="#DejaVuSans-Bold-6c" transform="translate(253.173828 0)"/>
     <use xlink:href="#DejaVuSans-Bold-69" transform="translate(287.451172 0)"/>
     <use xlink:href="#DejaVuSans-Bold-74" transform="translate(321.728516 0)"/>
     <use xlink:href="#DejaVuSans-Bold-75" transform="translate(369.53125 0)"/>
     <use xlink:href="#DejaVuSans-Bold-64" transform="translate(440.722656 0)"/>
     <use xlink:href="#DejaVuSans-Bold-65" transform="translate(512.304688 0)"/>
    </g>
    <!-- Encoding -->
    <g style="fill: #7b68ee" transform="translate(180.658429 95.017807) scale(0.11 -0.11)">
     <defs>
      <path id="DejaVuSans-Bold-6f" d="M 2203 2784 
Q 1831 2784 1636 2517 
Q 1441 2250 1441 1747 
Q 1441 1244 1636 976 
Q 1831 709 2203 709 
Q 2569 709 2762 976 
Q 2956 1244 2956 1747 
Q 2956 2250 2762 2517 
Q 2569 2784 2203 2784 
z
M 2203 3584 
Q 3106 3584 3614 3096 
Q 4122 2609 4122 1747 
Q 4122 884 3614 396 
Q 3106 -91 2203 -91 
Q 1297 -91 786 396 
Q 275 884 275 1747 
Q 275 2609 786 3096 
Q 1297 3584 2203 3584 
z
" transform="scale(0.015625)"/>
      <path id="DejaVuSans-Bold-67" d="M 2919 594 
Q 2688 288 2409 144 
Q 2131 0 1766 0 
Q 1125 0 706 504 
Q 288 1009 288 1791 
Q 288 2575 706 3076 
Q 1125 3578 1766 3578 
Q 2131 3578 2409 3434 
Q 2688 3291 2919 2981 
L 2919 3500 
L 4044 3500 
L 4044 353 
Q 4044 -491 3511 -936 
Q 2978 -1381 1966 -1381 
Q 1638 -1381 1331 -1331 
Q 1025 -1281 716 -1178 
L 716 -306 
Q 1009 -475 1290 -558 
Q 1572 -641 1856 -641 
Q 2406 -641 2662 -400 
Q 2919 -159 2919 353 
L 2919 594 
z
M 2181 2772 
Q 1834 2772 1640 2515 
Q 1447 2259 1447 1791 
Q 1447 1309 1634 1061 
Q 1822 813 2181 813 
Q 2531 813 2725 1069 
Q 2919 1325 2919 1791 
Q 2919 2259 2725 2515 
Q 2531 2772 2181 2772 
z
" transform="scale(0.015625)"/>
     </defs>
     <use xlink:href="#DejaVuSans-Bold-45"/>
     <use xlink:href="#DejaVuSans-Bold-6e" transform="translate(68.310547 0)"/>
     <use xlink:href="#DejaVuSans-Bold-63" transform="translate(139.501953 0)"/>
     <use xlink:href="#DejaVuSans-Bold-6f" transform="translate(198.779297 0)"/>
     <use xlink:href="#DejaVuSans-Bold-64" transform="translate(267.480469 0)"/>
     <use xlink:href="#DejaVuSans-Bold-69" transform="translate(339.0625 0)"/>
     <use xlink:href="#DejaVuSans-Bold-6e" transform="translate(373.339844 0)"/>
     <use xlink:href="#DejaVuSans-Bold-67" transform="translate(444.53125 0)"/>
    </g>
   </g>
   <g id="text_8">
    <!-- O(n²) gates -->
    <g style="fill: #666666" transform="translate(186.260694 462.963056) scale(0.08 -0.08)">
     <defs>
      <path id="DejaVuSans-Oblique-4f" d="M 2919 4238 
Q 2400 4238 2003 3986 
Q 1606 3734 1313 3219 
Q 1125 2891 1026 2522 
Q 928 2153 928 1778 
Q 928 1128 1239 775 
Q 1550 422 2119 422 
Q 2631 422 3032 676 
Q 3434 931 3719 1434 
Q 3909 1772 4009 2142 
Q 4109 2513 4109 2881 
Q 4109 3528 3796 3883 
Q 3484 4238 2919 4238 
z
M 2100 -91 
Q 1241 -91 748 418 
Q 256 928 256 1813 
Q 256 2319 448 2847 
Q 641 3375 978 3788 
Q 1375 4272 1862 4511 
Q 2350 4750 2938 4750 
Q 3794 4750 4287 4245 
Q 4781 3741 4781 2869 
Q 4781 2331 4593 1812 
Q 4406 1294 4056 872 
Q 3656 384 3173 146 
Q 2691 -91 2100 -91 
z
" transform="scale(0.015625)"/>
      <path id="DejaVuSans-Oblique-28" d="M 2731 4856 
Q 1903 3822 1495 2892 
Q 1088 1963 1088 1100 
Q 1088 606 1206 120 
Q 1325 -366 1563 -844 
L 1063 -844 
Q 775 -306 634 201 
Q 494 709 494 1197 
Q 494 2125 923 3036 
Q 1353 3947 2222 4856 
L 2731 4856 
z
" transform="scale(0.015625)"/>
      <path id="DejaVuSans-Oblique-6e" d="M 3566 2113 
L 3156 0 
L 2578 0 
L 2988 2091 
Q 3016 2238 3031 2350 
Q 3047 2463 3047 2528 
Q 3047 2791 2881 2937 
Q 2716 3084 2419 3084 
Q 1956 3084 1622 2776 
Q 1288 2469 1184 1941 
L 800 0 
L 225 0 
L 903 3500 
L 1478 3500 
L 1363 2950 
Q 1603 3253 1940 3418 
Q 2278 3584 2650 3584 
Q 3113 3584 3367 3334 
Q 3622 3084 3622 2631 
Q 3622 2519 3608 2391 
Q 3594 2263 3566 2113 
z
" transform="scale(0.015625)"/>
      <path id="DejaVuSans-Oblique-b2" d="M 2059 3406 
L 856 2444 
L 2234 2444 
L 2163 2088 
L 231 2088 
L 300 2431 
L 1619 3494 
Q 1803 3638 1893 3772 
Q 1984 3906 1984 4031 
Q 1984 4200 1853 4304 
Q 1722 4409 1503 4409 
Q 1331 4409 1125 4356 
Q 919 4303 659 4191 
L 738 4575 
Q 975 4663 1187 4706 
Q 1400 4750 1600 4750 
Q 1984 4750 2223 4572 
Q 2463 4394 2463 4116 
Q 2463 3922 2363 3745 
Q 2263 3569 2059 3406 
z
" transform="scale(0.015625)"/>
      <path id="DejaVuSans-Oblique-29" d="M -397 -844 
Q 434 191 840 1120 
Q 1247 2050 1247 2913 
Q 1247 3406 1130 3892 
Q 1013 4378 775 4856 
L 1275 4856 
Q 1563 4316 1703 3812 
Q 1844 3309 1844 2822 
Q 1844 1891 1411 973 
Q 978 56 116 -844 
L -397 -844 
z
" transform="scale(0.015625)"/>
      <path id="DejaVuSans-Oblique-20" transform="scale(0.015625)"/>
      <path id="DejaVuSans-Oblique-67" d="M 3816 3500 
L 3219 434 
Q 3047 -456 2561 -893 
Q 2075 -1331 1253 -1331 
Q 950 -1331 690 -1286 
Q 431 -1241 206 -1147 
L 313 -588 
Q 525 -725 762 -790 
Q 1000 -856 1269 -856 
Q 1816 -856 2167 -557 
Q 2519 -259 2631 300 
L 2681 563 
Q 2441 288 2122 144 
Q 1803 0 1434 0 
Q 903 0 598 351 
Q 294 703 294 1319 
Q 294 1803 478 2267 
Q 663 2731 997 3091 
Q 1219 3328 1514 3456 
Q 1809 3584 2131 3584 
Q 2484 3584 2746 3420 
Q 3009 3256 3138 2956 
L 3238 3500 
L 3816 3500 
z
M 2950 2216 
Q 2950 2641 2750 2872 
Q 2550 3103 2181 3103 
Q 1953 3103 1747 3012 
Q 1541 2922 1394 2759 
Q 1156 2491 1023 2127 
Q 891 1763 891 1375 
Q 891 944 1092 712 
Q 1294 481 1672 481 
Q 2219 481 2584 976 
Q 2950 1472 2950 2216 
z
" transform="scale(0.015625)"/>
      <path id="DejaVuSans-Oblique-61" d="M 3438 1997 
L 3047 0 
L 2472 0 
L 2578 531 
Q 2325 219 2001 64 
Q 1678 -91 1281 -91 
Q 834 -91 548 182 
Q 263 456 263 884 
Q 263 1497 752 1853 
Q 1241 2209 2100 2209 
L 2900 2209 
L 2931 2363 
Q 2938 2388 2941 2417 
Q 2944 2447 2944 2509 
Q 2944 2788 2717 2942 
Q 2491 3097 2081 3097 
Q 1800 3097 1504 3025 
Q 1209 2953 897 2809 
L 997 3341 
Q 1322 3463 1633 3523 
Q 1944 3584 2234 3584 
Q 2853 3584 3176 3315 
Q 3500 3047 3500 2534 
Q 3500 2431 3484 2292 
Q 3469 2153 3438 1997 
z
M 2816 1759 
L 2241 1759 
Q 1534 1759 1195 1570 
Q 856 1381 856 984 
Q 856 709 1029 553 
Q 1203 397 1509 397 
Q 1978 397 2328 733 
Q 2678 1069 2791 1631 
L 2816 1759 
z
" transform="scale(0.015625)"/>
      <path id="DejaVuSans-Oblique-74" d="M 2706 3500 
L 2619 3053 
L 1472 3053 
L 1100 1153 
Q 1081 1047 1072 975 
Q 1063 903 1063 863 
Q 1063 663 1183 572 
Q 1303 481 1569 481 
L 2150 481 
L 2053 0 
L 1503 0 
Q 991 0 739 200 
Q 488 400 488 806 
Q 488 878 497 964 
Q 506 1050 525 1153 
L 897 3053 
L 409 3053 
L 500 3500 
L 978 3500 
L 1172 4494 
L 1747 4494 
L 1556 3500 
L 2706 3500 
z
" transform="scale(0.015625)"/>
      <path id="DejaVuSans-Oblique-65" d="M 3078 2063 
Q 3088 2113 3092 2166 
Q 3097 2219 3097 2272 
Q 3097 2653 2873 2875 
Q 2650 3097 2266 3097 
Q 1838 3097 1509 2826 
Q 1181 2556 1013 2059 
L 3078 2063 
z
M 3578 1613 
L 903 1613 
Q 884 1494 878 1425 
Q 872 1356 872 1306 
Q 872 872 1139 634 
Q 1406 397 1894 397 
Q 2269 397 2603 481 
Q 2938 566 3225 728 
L 3116 159 
Q 2806 34 2476 -28 
Q 2147 -91 1806 -91 
Q 1078 -91 686 257 
Q 294 606 294 1247 
Q 294 1794 489 2264 
Q 684 2734 1063 3103 
Q 1306 3334 1642 3459 
Q 1978 3584 2356 3584 
Q 2950 3584 3301 3228 
Q 3653 2872 3653 2272 
Q 3653 2128 3634 1964 
Q 3616 1800 3578 1613 
z
" transform="scale(0.015625)"/>
      <path id="DejaVuSans-Oblique-73" d="M 3200 3397 
L 3091 2853 
Q 2863 2978 2609 3040 
Q 2356 3103 2088 3103 
Q 1634 3103 1373 2948 
Q 1113 2794 1113 2528 
Q 1113 2219 1719 2053 
Q 1766 2041 1788 2034 
L 1972 1978 
Q 2547 1819 2739 1644 
Q 2931 1469 2931 1166 
Q 2931 609 2489 259 
Q 2047 -91 1331 -91 
Q 1053 -91 747 -37 
Q 441 16 72 128 
L 184 722 
Q 500 559 806 475 
Q 1113 391 1394 391 
Q 1816 391 2080 572 
Q 2344 753 2344 1031 
Q 2344 1331 1650 1516 
L 1591 1531 
L 1394 1581 
Q 956 1697 753 1886 
Q 550 2075 550 2369 
Q 550 2928 970 3256 
Q 1391 3584 2113 3584 
Q 2397 3584 2667 3537 
Q 2938 3491 3200 3397 
z
" transform="scale(0.015625)"/>
     </defs>
     <use xlink:href="#DejaVuSans-Oblique-4f"/>
     <use xlink:href="#DejaVuSans-Oblique-28" transform="translate(78.710938 0)"/>
     <use xlink:href="#DejaVuSans-Oblique-6e" transform="translate(117.724609 0)"/>
     <use xlink:href="#DejaVuSans-Oblique-b2" transform="translate(181.103516 0)"/>
     <use xlink:href="#DejaVuSans-Oblique-29" transform="translate(221.191406 0)"/>
     <use xlink:href="#DejaVuSans-Oblique-20" transform="translate(260.205078 0)"/>
     <use xlink:href="#DejaVuSans-Oblique-67" transform="translate(291.992188 0)"/>
     <use xlink:href="#DejaVuSans-Oblique-61" transform="translate(355.46875 0)"/>
     <use xlink:href="#DejaVuSans-Oblique-74" transform="translate(416.748047 0)"/>
     <use xlink:href="#DejaVuSans-Oblique-65" transform="translate(455.957031 0)"/>
     <use xlink:href="#DejaVuSans-Oblique-73" transform="translate(517.480469 0)"/>
    </g>
   </g>
   <g id="text_9">
    <!-- H -->
    <g style="fill: #ffffff" transform="translate(337.075208 132.574236) scale(0.14 -0.14)">
     <use xlink:href="#DejaVuSans-Bold-48"/>
    </g>
   </g>
   <g id="text_10">
    <!-- D₂ₙ₋₁ -->
    <g style="fill: #ffffff" transform="translate(349.563134 296.119194) scale(0.11 -0.11)">
     <defs>
      <path id="DejaVuSans-Bold-2099" d="M 2597 1169 
L 2597 -24 
L 1875 -24 
L 1875 169 
L 1875 888 
Q 1875 1144 1863 1238 
Q 1850 1335 1819 1382 
Q 1775 1441 1703 1475 
Q 1631 1510 1541 1510 
Q 1316 1510 1188 1360 
Q 1059 1207 1059 941 
L 1059 -24 
L 344 -24 
L 344 1935 
L 1059 1935 
L 1059 1647 
Q 1222 1819 1403 1901 
Q 1588 1982 1806 1982 
Q 2194 1982 2394 1776 
Q 2597 1566 2597 1169 
z
" transform="scale(0.015625)"/>
      <path id="DejaVuSans-Bold-208b" d="M 428 1307 
L 2950 1307 
L 2950 891 
L 428 891 
L 428 1307 
z
" transform="scale(0.015625)"/>
     </defs>
     <use xlink:href="#DejaVuSans-Bold-44"/>
     <use xlink:href="#DejaVuSans-Bold-2082" transform="translate(83.007812 0)"/>
     <use xlink:href="#DejaVuSans-Bold-2099" transform="translate(126.806641 0)"/>
     <use xlink:href="#DejaVuSans-Bold-208b" transform="translate(172.363281 0)"/>
     <use xlink:href="#DejaVuSans-Bold-2081" transform="translate(225.146484 0)"/>
    </g>
    <!-- (Cyclic -->
    <g style="fill: #ffffff" transform="translate(343.928212 308.436788) scale(0.11 -0.11)">
     <defs>
      <path id="DejaVuSans-Bold-79" d="M 78 3500 
L 1197 3500 
L 2138 1125 
L 2938 3500 
L 4056 3500 
L 2584 -331 
Q 2363 -916 2067 -1148 
Q 1772 -1381 1288 -1381 
L 641 -1381 
L 641 -647 
L 991 -647 
Q 1275 -647 1404 -556 
Q 1534 -466 1606 -231 
L 1638 -134 
L 78 3500 
z
" transform="scale(0.015625)"/>
     </defs>
     <use xlink:href="#DejaVuSans-Bold-28"/>
     <use xlink:href="#DejaVuSans-Bold-43" transform="translate(45.703125 0)"/>
     <use xlink:href="#DejaVuSans-Bold-79" transform="translate(119.091797 0)"/>
     <use xlink:href="#DejaVuSans-Bold-63" transform="translate(184.277344 0)"/>
     <use xlink:href="#DejaVuSans-Bold-6c" transform="translate(243.554688 0)"/>
     <use xlink:href="#DejaVuSans-Bold-69" transform="translate(277.832031 0)"/>
     <use xlink:href="#DejaVuSans-Bold-63" transform="translate(312.109375 0)"/>
    </g>
    <!-- Perm.) -->
    <g style="fill: #ffffff" transform="translate(343.547509 320.840319) scale(0.11 -0.11)">
     <defs>
      <path id="DejaVuSans-Bold-50" d="M 588 4666 
L 2584 4666 
Q 3475 4666 3951 4270 
Q 4428 3875 4428 3144 
Q 4428 2409 3951 2014 
Q 3475 1619 2584 1619 
L 1791 1619 
L 1791 0 
L 588 0 
L 588 4666 
z
M 1791 3794 
L 1791 2491 
L 2456 2491 
Q 2806 2491 2997 2661 
Q 3188 2831 3188 3144 
Q 3188 3456 2997 3625 
Q 2806 3794 2456 3794 
L 1791 3794 
z
" transform="scale(0.015625)"/>
      <path id="DejaVuSans-Bold-2e" d="M 653 1209 
L 1778 1209 
L 1778 0 
L 653 0 
L 653 1209 
z
" transform="scale(0.015625)"/>
     </defs>
     <use xlink:href="#DejaVuSans-Bold-50"/>
     <use xlink:href="#DejaVuSans-Bold-65" transform="translate(73.291016 0)"/>
     <use xlink:href="#DejaVuSans-Bold-72" transform="translate(141.113281 0)"/>
     <use xlink:href="#DejaVuSans-Bold-6d" transform="translate(190.429688 0)"/>
     <use xlink:href="#DejaVuSans-Bold-2e" transform="translate(294.628906 0)"/>
     <use xlink:href="#DejaVuSans-Bold-29" transform="translate(332.617188 0)"/>
    </g>
   </g>
   <g id="text_11">
    <!-- O(k) gates -->
    <g style="fill: #666666" transform="translate(343.394306 462.963056) scale(0.08 -0.08)">
     <defs>
      <path id="DejaVuSans-Oblique-6b" d="M 1172 4863 
L 1747 4863 
L 1197 2028 
L 3169 3500 
L 3916 3500 
L 1716 1825 
L 3322 0 
L 2625 0 
L 1131 1709 
L 800 0 
L 225 0 
L 1172 4863 
z
" transform="scale(0.015625)"/>
     </defs>
     <use xlink:href="#DejaVuSans-Oblique-4f"/>
     <use xlink:href="#DejaVuSans-Oblique-28" transform="translate(78.710938 0)"/>
     <use xlink:href="#DejaVuSans-Oblique-6b" transform="translate(117.724609 0)"/>
     <use xlink:href="#DejaVuSans-Oblique-29" transform="translate(175.634766 0)"/>
     <use xlink:href="#DejaVuSans-Oblique-20" transform="translate(214.648438 0)"/>
     <use xlink:href="#DejaVuSans-Oblique-67" transform="translate(246.435547 0)"/>
     <use xlink:href="#DejaVuSans-Oblique-61" transform="translate(309.912109 0)"/>
     <use xlink:href="#DejaVuSans-Oblique-74" transform="translate(371.191406 0)"/>
     <use xlink:href="#DejaVuSans-Oblique-65" transform="translate(410.400391 0)"/>
     <use xlink:href="#DejaVuSans-Oblique-73" transform="translate(471.923828 0)"/>
    </g>
   </g>
   <g id="text_12">
    <!-- M -->
    <g style="fill: #ffffff" transform="translate(522.724219 131.470486) scale(0.1 -0.1)">
     <defs>
      <path id="DejaVuSans-Bold-4d" d="M 588 4666 
L 2119 4666 
L 3181 2169 
L 4250 4666 
L 5778 4666 
L 5778 0 
L 4641 0 
L 4641 3413 
L 3566 897 
L 2803 897 
L 1728 3413 
L 1728 0 
L 588 0 
L 588 4666 
z
" transform="scale(0.015625)"/>
     </defs>
     <use xlink:href="#DejaVuSans-Bold-4d"/>
    </g>
   </g>
   <g id="text_13">
    <!-- M -->
    <g style="fill: #ffffff" transform="translate(522.724219 211.803819) scale(0.1 -0.1)">
     <use xlink:href="#DejaVuSans-Bold-4d"/>
    </g>
   </g>
   <g id="text_14">
    <!-- M -->
    <g style="fill: #ffffff" transform="translate(522.724219 292.137153) scale(0.1 -0.1)">
     <use xlink:href="#DejaVuSans-Bold-4d"/>
    </g>
   </g>
   <g id="text_15">
    <!-- M -->
    <g style="fill: #ffffff" transform="translate(522.724219 415.314931) scale(0.1 -0.1)">
     <use xlink:href="#DejaVuSans-Bold-4d"/>
    </g>
   </g>
   <g id="text_16">
    <!-- Measurement -->
    <g style="fill: #f39c12" transform="translate(485.147187 88.901979) scale(0.11 -0.11)">
     <use xlink:href="#DejaVuSans-Bold-4d"/>
     <use xlink:href="#DejaVuSans-Bold-65" transform="translate(99.511719 0)"/>
     <use xlink:href="#DejaVuSans-Bold-61" transform="translate(167.333984 0)"/>
     <use xlink:href="#DejaVuSans-Bold-73" transform="translate(234.814453 0)"/>
     <use xlink:href="#DejaVuSans-Bold-75" transform="translate(294.335938 0)"/>
     <use xlink:href="#DejaVuSans-Bold-72" transform="translate(365.527344 0)"/>
     <use xlink:href="#DejaVuSans-Bold-65" transform="translate(414.84375 0)"/>
     <use xlink:href="#DejaVuSans-Bold-6d" transform="translate(482.666016 0)"/>
     <use xlink:href="#DejaVuSans-Bold-65" transform="translate(586.865234 0)"/>
     <use xlink:href="#DejaVuSans-Bold-6e" transform="translate(654.6875 0)"/>
     <use xlink:href="#DejaVuSans-Bold-74" transform="translate(725.878906 0)"/>
    </g>
   </g>
   <g id="text_17">
    <!-- Post-select -->
    <g style="fill: #ffffff" transform="translate(625.325087 126.006752) scale(0.09 -0.09)">
     <defs>
      <path id="DejaVuSans-Bold-2d" d="M 347 2297 
L 2309 2297 
L 2309 1388 
L 347 1388 
L 347 2297 
z
" transform="scale(0.015625)"/>
     </defs>
     <use xlink:href="#DejaVuSans-Bold-50"/>
     <use xlink:href="#DejaVuSans-Bold-6f" transform="translate(73.291016 0)"/>
     <use xlink:href="#DejaVuSans-Bold-73" transform="translate(141.992188 0)"/>
     <use xlink:href="#DejaVuSans-Bold-74" transform="translate(201.513672 0)"/>
     <use xlink:href="#DejaVuSans-Bold-2d" transform="translate(249.316406 0)"/>
     <use xlink:href="#DejaVuSans-Bold-73" transform="translate(290.820312 0)"/>
     <use xlink:href="#DejaVuSans-Bold-65" transform="translate(350.341797 0)"/>
     <use xlink:href="#DejaVuSans-Bold-6c" transform="translate(418.164062 0)"/>
     <use xlink:href="#DejaVuSans-Bold-65" transform="translate(452.441406 0)"/>
     <use xlink:href="#DejaVuSans-Bold-63" transform="translate(520.263672 0)"/>
     <use xlink:href="#DejaVuSans-Bold-74" transform="translate(579.541016 0)"/>
    </g>
    <!-- Ancilla = |1⟩ -->
    <g style="fill: #ffffff" transform="translate(622.801571 136.132033) scale(0.09 -0.09)">
     <defs>
      <path id="DejaVuSans-Bold-3d" d="M 678 3084 
L 4684 3084 
L 4684 2350 
L 678 2350 
L 678 3084 
z
M 678 1663 
L 4684 1663 
L 4684 922 
L 678 922 
L 678 1663 
z
" transform="scale(0.015625)"/>
      <path id="DejaVuSans-Bold-31" d="M 750 831 
L 1813 831 
L 1813 3847 
L 722 3622 
L 722 4441 
L 1806 4666 
L 2950 4666 
L 2950 831 
L 4013 831 
L 4013 0 
L 750 0 
L 750 831 
z
" transform="scale(0.015625)"/>
     </defs>
     <use xlink:href="#DejaVuSans-Bold-41"/>
     <use xlink:href="#DejaVuSans-Bold-6e" transform="translate(77.392578 0)"/>
     <use xlink:href="#DejaVuSans-Bold-63" transform="translate(148.583984 0)"/>
     <use xlink:href="#DejaVuSans-Bold-69" transform="translate(207.861328 0)"/>
     <use xlink:href="#DejaVuSans-Bold-6c" transform="translate(242.138672 0)"/>
     <use xlink:href="#DejaVuSans-Bold-6c" transform="translate(276.416016 0)"/>
     <use xlink:href="#DejaVuSans-Bold-61" transform="translate(310.693359 0)"/>
     <use xlink:href="#DejaVuSans-Bold-20" transform="translate(378.173828 0)"/>
     <use xlink:href="#DejaVuSans-Bold-3d" transform="translate(412.988281 0)"/>
     <use xlink:href="#DejaVuSans-Bold-20" transform="translate(496.777344 0)"/>
     <use xlink:href="#DejaVuSans-Bold-7c" transform="translate(531.591797 0)"/>
     <use xlink:href="#DejaVuSans-Bold-31" transform="translate(568.115234 0)"/>
     <use xlink:href="#DejaVuSans-Bold-27e9" transform="translate(637.695312 0)"/>
    </g>
   </g>
   <g id="text_18">
    <!-- Edge -->
    <g style="fill: #ffffff" transform="translate(640.987196 297.665913) scale(0.09 -0.09)">
     <use xlink:href="#DejaVuSans-Bold-45"/>
     <use xlink:href="#DejaVuSans-Bold-64" transform="translate(68.310547 0)"/>
     <use xlink:href="#DejaVuSans-Bold-67" transform="translate(139.892578 0)"/>
     <use xlink:href="#DejaVuSans-Bold-65" transform="translate(211.474609 0)"/>
    </g>
    <!-- Probabilities -->
    <g style="fill: #ffffff" transform="translate(621.415712 307.814257) scale(0.09 -0.09)">
     <use xlink:href="#DejaVuSans-Bold-50"/>
     <use xlink:href="#DejaVuSans-Bold-72" transform="translate(73.291016 0)"/>
     <use xlink:href="#DejaVuSans-Bold-6f" transform="translate(122.607422 0)"/>
     <use xlink:href="#DejaVuSans-Bold-62" transform="translate(191.308594 0)"/>
     <use xlink:href="#DejaVuSans-Bold-61" transform="translate(262.890625 0)"/>
     <use xlink:href="#DejaVuSans-Bold-62" transform="translate(330.371094 0)"/>
     <use xlink:href="#DejaVuSans-Bold-69" transform="translate(401.953125 0)"/>
     <use xlink:href="#DejaVuSans-Bold-6c" transform="translate(436.230469 0)"/>
     <use xlink:href="#DejaVuSans-Bold-69" transform="translate(470.507812 0)"/>
     <use xlink:href="#DejaVuSans-Bold-74" transform="translate(504.785156 0)"/>
     <use xlink:href="#DejaVuSans-Bold-69" transform="translate(552.587891 0)"/>
     <use xlink:href="#DejaVuSans-Bold-65" transform="translate(586.865234 0)"/>
     <use xlink:href="#DejaVuSans-Bold-73" transform="translate(654.6875 0)"/>
    </g>
    <!-- |cⱼ - cⱼ'|² -->
    <g style="fill: #ffffff" transform="translate(634.610556 317.939538) scale(0.09 -0.09)">
     <defs>
      <path id="DejaVuSans-Bold-2c7c" d="M 344 1935 
L 1059 1935 
L 1059 10 
Q 1059 -384 844 -590 
Q 628 -799 219 -799 
L -138 -799 
L -138 -387 
L -13 -387 
Q 191 -387 269 -306 
Q 344 -224 344 10 
L 344 1935 
z
M 344 2697 
L 1059 2697 
L 1059 2188 
L 344 2188 
L 344 2697 
z
" transform="scale(0.015625)"/>
      <path id="DejaVuSans-Bold-27" d="M 1350 4666 
L 1350 2931 
L 609 2931 
L 609 4666 
L 1350 4666 
z
" transform="scale(0.015625)"/>
      <path id="DejaVuSans-Bold-b2" d="M 1288 2613 
L 2444 2613 
L 2444 2088 
L 341 2088 
L 341 2566 
L 1319 3397 
Q 1509 3563 1590 3688 
Q 1672 3813 1672 3938 
Q 1672 4094 1558 4191 
Q 1444 4288 1259 4288 
Q 1066 4288 844 4217 
Q 622 4147 359 4000 
L 359 4581 
Q 631 4666 886 4708 
Q 1141 4750 1375 4750 
Q 1869 4750 2150 4548 
Q 2431 4347 2431 4000 
Q 2431 3775 2320 3586 
Q 2209 3397 1894 3128 
L 1288 2613 
z
" transform="scale(0.015625)"/>
     </defs>
     <use xlink:href="#DejaVuSans-Bold-7c"/>
     <use xlink:href="#DejaVuSans-Bold-63" transform="translate(36.523438 0)"/>
     <use xlink:href="#DejaVuSans-Bold-2c7c" transform="translate(95.800781 0)"/>
     <use xlink:href="#DejaVuSans-Bold-20" transform="translate(117.724609 0)"/>
     <use xlink:href="#DejaVuSans-Bold-2d" transform="translate(152.539062 0)"/>
     <use xlink:href="#DejaVuSans-Bold-20" transform="translate(194.042969 0)"/>
     <use xlink:href="#DejaVuSans-Bold-63" transform="translate(228.857422 0)"/>
     <use xlink:href="#DejaVuSans-Bold-2c7c" transform="translate(288.134766 0)"/>
     <use xlink:href="#DejaVuSans-Bold-27" transform="translate(310.058594 0)"/>
     <use xlink:href="#DejaVuSans-Bold-7c" transform="translate(340.673828 0)"/>
     <use xlink:href="#DejaVuSans-Bold-b2" transform="translate(377.197266 0)"/>
    </g>
   </g>
  </g>
 </g>
 <defs>
  <clipPath id="p41a293d494">
   <rect x="21.6" y="21.6" width="749.777778" height="482"/>
  </clipPath>
 </defs>
</svg>
